G04 #@! TF.GenerationSoftware,KiCad,Pcbnew,6.0.11+dfsg-1*
G04 #@! TF.CreationDate,2025-03-22T20:51:54+01:00*
G04 #@! TF.ProjectId,shootingrangepcb,73686f6f-7469-46e6-9772-616e67657063,rev?*
G04 #@! TF.SameCoordinates,Original*
G04 #@! TF.FileFunction,Copper,L2,Bot*
G04 #@! TF.FilePolarity,Positive*
%FSLAX46Y46*%
G04 Gerber Fmt 4.6, Leading zero omitted, Abs format (unit mm)*
G04 Created by KiCad (PCBNEW 6.0.11+dfsg-1) date 2025-03-22 20:51:54*
%MOMM*%
%LPD*%
G01*
G04 APERTURE LIST*
G04 #@! TA.AperFunction,ComponentPad*
%ADD10C,1.408000*%
G04 #@! TD*
G04 #@! TA.AperFunction,ComponentPad*
%ADD11R,1.408000X1.408000*%
G04 #@! TD*
G04 #@! TA.AperFunction,ComponentPad*
%ADD12R,1.700000X1.700000*%
G04 #@! TD*
G04 #@! TA.AperFunction,ComponentPad*
%ADD13O,1.700000X1.700000*%
G04 #@! TD*
G04 #@! TA.AperFunction,ViaPad*
%ADD14C,0.900000*%
G04 #@! TD*
G04 #@! TA.AperFunction,Conductor*
%ADD15C,0.200000*%
G04 #@! TD*
G04 APERTURE END LIST*
D10*
X149375000Y-85460000D03*
X150645000Y-82920000D03*
X146835000Y-85460000D03*
X148105000Y-82920000D03*
X144295000Y-85460000D03*
X145565000Y-82920000D03*
D11*
X141755000Y-85460000D03*
D10*
X143025000Y-82920000D03*
D12*
X108370000Y-48770000D03*
D13*
X108370000Y-46230000D03*
X110910000Y-48770000D03*
X110910000Y-46230000D03*
X113450000Y-48770000D03*
X113450000Y-46230000D03*
X115990000Y-48770000D03*
X115990000Y-46230000D03*
X118530000Y-48770000D03*
X118530000Y-46230000D03*
X121070000Y-48770000D03*
X121070000Y-46230000D03*
X123610000Y-48770000D03*
X123610000Y-46230000D03*
X126150000Y-48770000D03*
X126150000Y-46230000D03*
X128690000Y-48770000D03*
X128690000Y-46230000D03*
X131230000Y-48770000D03*
X131230000Y-46230000D03*
X133770000Y-48770000D03*
X133770000Y-46230000D03*
X136310000Y-48770000D03*
X136310000Y-46230000D03*
X138850000Y-48770000D03*
X138850000Y-46230000D03*
X141390000Y-48770000D03*
X141390000Y-46230000D03*
X143930000Y-48770000D03*
X143930000Y-46230000D03*
X146470000Y-48770000D03*
X146470000Y-46230000D03*
X149010000Y-48770000D03*
X149010000Y-46230000D03*
X151550000Y-48770000D03*
X151550000Y-46230000D03*
X154090000Y-48770000D03*
X154090000Y-46230000D03*
X156630000Y-48770000D03*
X156630000Y-46230000D03*
D10*
X120975000Y-85460000D03*
X122245000Y-82920000D03*
X118435000Y-85460000D03*
X119705000Y-82920000D03*
X115895000Y-85460000D03*
X117165000Y-82920000D03*
D11*
X113355000Y-85460000D03*
D10*
X114625000Y-82920000D03*
D14*
X145200000Y-51300000D03*
X140700000Y-51700000D03*
X131700000Y-76600000D03*
X159900000Y-73400000D03*
X125200000Y-52700000D03*
D15*
X143930000Y-48770000D02*
X143930000Y-51330000D01*
X143930000Y-51330000D02*
X159900000Y-67300000D01*
X159900000Y-67300000D02*
X159900000Y-73400000D01*
X131700000Y-76600000D02*
X131700000Y-68000000D01*
X131700000Y-68000000D02*
X115990000Y-52290000D01*
X115990000Y-52290000D02*
X115990000Y-48770000D01*
G04 #@! TA.AperFunction,Conductor*
G36*
X161991463Y-44102898D02*
G01*
X162000000Y-44105672D01*
X162007380Y-44103274D01*
X162011197Y-44103274D01*
X162022734Y-44101777D01*
X162321890Y-44118577D01*
X162327351Y-44119192D01*
X162484920Y-44145964D01*
X162642498Y-44172738D01*
X162647836Y-44173957D01*
X162952821Y-44261820D01*
X162954999Y-44262448D01*
X162960186Y-44264263D01*
X163255506Y-44386589D01*
X163260456Y-44388973D01*
X163540220Y-44543593D01*
X163544873Y-44546517D01*
X163805565Y-44731488D01*
X163809861Y-44734914D01*
X164048204Y-44947911D01*
X164052089Y-44951796D01*
X164265086Y-45190139D01*
X164268512Y-45194435D01*
X164453483Y-45455127D01*
X164456407Y-45459780D01*
X164611027Y-45739544D01*
X164613411Y-45744494D01*
X164735737Y-46039814D01*
X164737552Y-46045001D01*
X164826043Y-46352164D01*
X164827262Y-46357502D01*
X164845334Y-46463863D01*
X164880808Y-46672649D01*
X164881423Y-46678110D01*
X164898223Y-46977266D01*
X164896726Y-46988803D01*
X164896726Y-46992620D01*
X164894328Y-47000000D01*
X164896726Y-47007380D01*
X164897102Y-47008537D01*
X164899500Y-47023680D01*
X164899500Y-96976320D01*
X164897102Y-96991463D01*
X164894328Y-97000000D01*
X164896726Y-97007380D01*
X164896726Y-97011197D01*
X164898223Y-97022734D01*
X164881423Y-97321890D01*
X164880808Y-97327351D01*
X164856047Y-97473085D01*
X164827262Y-97642498D01*
X164826043Y-97647836D01*
X164759361Y-97879297D01*
X164737552Y-97954999D01*
X164735737Y-97960186D01*
X164613411Y-98255506D01*
X164611027Y-98260456D01*
X164456407Y-98540220D01*
X164453483Y-98544873D01*
X164268512Y-98805565D01*
X164265086Y-98809861D01*
X164052089Y-99048204D01*
X164048204Y-99052089D01*
X163809861Y-99265086D01*
X163805565Y-99268512D01*
X163544873Y-99453483D01*
X163540220Y-99456407D01*
X163260456Y-99611027D01*
X163255506Y-99613411D01*
X162960186Y-99735737D01*
X162954999Y-99737552D01*
X162647836Y-99826043D01*
X162642498Y-99827262D01*
X162484920Y-99854036D01*
X162327351Y-99880808D01*
X162321890Y-99881423D01*
X162022734Y-99898223D01*
X162011197Y-99896726D01*
X162007380Y-99896726D01*
X162000000Y-99894328D01*
X161992620Y-99896726D01*
X161991463Y-99897102D01*
X161976320Y-99899500D01*
X103023680Y-99899500D01*
X103008537Y-99897102D01*
X103007380Y-99896726D01*
X103000000Y-99894328D01*
X102992620Y-99896726D01*
X102988803Y-99896726D01*
X102977266Y-99898223D01*
X102678110Y-99881423D01*
X102672649Y-99880808D01*
X102515080Y-99854036D01*
X102357502Y-99827262D01*
X102352164Y-99826043D01*
X102045001Y-99737552D01*
X102039814Y-99735737D01*
X101744494Y-99613411D01*
X101739544Y-99611027D01*
X101459780Y-99456407D01*
X101455127Y-99453483D01*
X101194435Y-99268512D01*
X101190139Y-99265086D01*
X100951796Y-99052089D01*
X100947911Y-99048204D01*
X100734914Y-98809861D01*
X100731488Y-98805565D01*
X100546517Y-98544873D01*
X100543593Y-98540220D01*
X100388973Y-98260456D01*
X100386589Y-98255506D01*
X100264263Y-97960186D01*
X100262448Y-97954999D01*
X100240639Y-97879297D01*
X100173957Y-97647836D01*
X100172738Y-97642498D01*
X100143953Y-97473085D01*
X100119192Y-97327351D01*
X100118577Y-97321890D01*
X100101777Y-97022734D01*
X100103274Y-97011197D01*
X100103274Y-97007380D01*
X100105672Y-97000000D01*
X100102898Y-96991463D01*
X100100500Y-96976320D01*
X100100500Y-96554288D01*
X101945404Y-96554288D01*
X101974081Y-96802140D01*
X102042017Y-97042219D01*
X102042849Y-97044003D01*
X102042850Y-97044006D01*
X102146629Y-97266562D01*
X102147462Y-97268348D01*
X102148569Y-97269976D01*
X102148569Y-97269977D01*
X102286601Y-97473085D01*
X102286605Y-97473090D01*
X102287706Y-97474710D01*
X102289055Y-97476137D01*
X102289057Y-97476139D01*
X102387815Y-97580572D01*
X102459138Y-97655994D01*
X102460709Y-97657195D01*
X102460710Y-97657196D01*
X102577676Y-97746623D01*
X102657349Y-97807538D01*
X102877239Y-97925443D01*
X103113152Y-98006674D01*
X103359017Y-98049142D01*
X103360546Y-98049211D01*
X103360551Y-98049212D01*
X103388364Y-98050475D01*
X103388379Y-98050475D01*
X103388922Y-98050500D01*
X103562691Y-98050500D01*
X103563658Y-98050422D01*
X103563663Y-98050422D01*
X103746743Y-98035692D01*
X103746748Y-98035691D01*
X103748702Y-98035534D01*
X103750606Y-98035066D01*
X103750608Y-98035066D01*
X103989097Y-97976487D01*
X103989098Y-97976487D01*
X103991006Y-97976018D01*
X103992813Y-97975251D01*
X103992816Y-97975250D01*
X104218869Y-97879297D01*
X104218875Y-97879294D01*
X104220677Y-97878529D01*
X104431808Y-97745573D01*
X104618965Y-97580572D01*
X104707256Y-97473085D01*
X104776091Y-97389284D01*
X104776094Y-97389279D01*
X104777334Y-97387770D01*
X104902840Y-97172128D01*
X104992255Y-96939195D01*
X105043278Y-96694961D01*
X105049666Y-96554288D01*
X159945404Y-96554288D01*
X159974081Y-96802140D01*
X160042017Y-97042219D01*
X160042849Y-97044003D01*
X160042850Y-97044006D01*
X160146629Y-97266562D01*
X160147462Y-97268348D01*
X160148569Y-97269976D01*
X160148569Y-97269977D01*
X160286601Y-97473085D01*
X160286605Y-97473090D01*
X160287706Y-97474710D01*
X160289055Y-97476137D01*
X160289057Y-97476139D01*
X160387815Y-97580572D01*
X160459138Y-97655994D01*
X160460709Y-97657195D01*
X160460710Y-97657196D01*
X160577676Y-97746623D01*
X160657349Y-97807538D01*
X160877239Y-97925443D01*
X161113152Y-98006674D01*
X161359017Y-98049142D01*
X161360546Y-98049211D01*
X161360551Y-98049212D01*
X161388364Y-98050475D01*
X161388379Y-98050475D01*
X161388922Y-98050500D01*
X161562691Y-98050500D01*
X161563658Y-98050422D01*
X161563663Y-98050422D01*
X161746743Y-98035692D01*
X161746748Y-98035691D01*
X161748702Y-98035534D01*
X161750606Y-98035066D01*
X161750608Y-98035066D01*
X161989097Y-97976487D01*
X161989098Y-97976487D01*
X161991006Y-97976018D01*
X161992813Y-97975251D01*
X161992816Y-97975250D01*
X162218869Y-97879297D01*
X162218875Y-97879294D01*
X162220677Y-97878529D01*
X162431808Y-97745573D01*
X162618965Y-97580572D01*
X162707256Y-97473085D01*
X162776091Y-97389284D01*
X162776094Y-97389279D01*
X162777334Y-97387770D01*
X162902840Y-97172128D01*
X162992255Y-96939195D01*
X163043278Y-96694961D01*
X163054596Y-96445712D01*
X163025919Y-96197860D01*
X162957983Y-95957781D01*
X162898263Y-95829709D01*
X162853371Y-95733438D01*
X162853370Y-95733436D01*
X162852538Y-95731652D01*
X162851431Y-95730023D01*
X162713399Y-95526915D01*
X162713395Y-95526910D01*
X162712294Y-95525290D01*
X162613624Y-95420949D01*
X162542221Y-95345443D01*
X162542220Y-95345442D01*
X162540862Y-95344006D01*
X162539290Y-95342804D01*
X162344221Y-95193662D01*
X162344218Y-95193660D01*
X162342651Y-95192462D01*
X162122761Y-95074557D01*
X161886848Y-94993326D01*
X161640983Y-94950858D01*
X161639454Y-94950789D01*
X161639449Y-94950788D01*
X161611636Y-94949525D01*
X161611621Y-94949525D01*
X161611078Y-94949500D01*
X161437309Y-94949500D01*
X161436342Y-94949578D01*
X161436337Y-94949578D01*
X161253257Y-94964308D01*
X161253252Y-94964309D01*
X161251298Y-94964466D01*
X161249394Y-94964934D01*
X161249392Y-94964934D01*
X161131188Y-94993968D01*
X161008994Y-95023982D01*
X161007187Y-95024749D01*
X161007184Y-95024750D01*
X160781131Y-95120703D01*
X160781125Y-95120706D01*
X160779323Y-95121471D01*
X160568192Y-95254427D01*
X160381035Y-95419428D01*
X160379786Y-95420949D01*
X160223909Y-95610716D01*
X160223906Y-95610721D01*
X160222666Y-95612230D01*
X160097160Y-95827872D01*
X160007745Y-96060805D01*
X159956722Y-96305039D01*
X159945404Y-96554288D01*
X105049666Y-96554288D01*
X105054596Y-96445712D01*
X105025919Y-96197860D01*
X104957983Y-95957781D01*
X104898263Y-95829709D01*
X104853371Y-95733438D01*
X104853370Y-95733436D01*
X104852538Y-95731652D01*
X104851431Y-95730023D01*
X104713399Y-95526915D01*
X104713395Y-95526910D01*
X104712294Y-95525290D01*
X104613624Y-95420949D01*
X104542221Y-95345443D01*
X104542220Y-95345442D01*
X104540862Y-95344006D01*
X104539290Y-95342804D01*
X104344221Y-95193662D01*
X104344218Y-95193660D01*
X104342651Y-95192462D01*
X104122761Y-95074557D01*
X103886848Y-94993326D01*
X103640983Y-94950858D01*
X103639454Y-94950789D01*
X103639449Y-94950788D01*
X103611636Y-94949525D01*
X103611621Y-94949525D01*
X103611078Y-94949500D01*
X103437309Y-94949500D01*
X103436342Y-94949578D01*
X103436337Y-94949578D01*
X103253257Y-94964308D01*
X103253252Y-94964309D01*
X103251298Y-94964466D01*
X103249394Y-94964934D01*
X103249392Y-94964934D01*
X103131188Y-94993968D01*
X103008994Y-95023982D01*
X103007187Y-95024749D01*
X103007184Y-95024750D01*
X102781131Y-95120703D01*
X102781125Y-95120706D01*
X102779323Y-95121471D01*
X102568192Y-95254427D01*
X102381035Y-95419428D01*
X102379786Y-95420949D01*
X102223909Y-95610716D01*
X102223906Y-95610721D01*
X102222666Y-95612230D01*
X102097160Y-95827872D01*
X102007745Y-96060805D01*
X101956722Y-96305039D01*
X101945404Y-96554288D01*
X100100500Y-96554288D01*
X100100500Y-91931757D01*
X110257795Y-91931757D01*
X110294384Y-92200607D01*
X110370310Y-92461096D01*
X110371069Y-92462743D01*
X110371070Y-92462745D01*
X110440571Y-92613505D01*
X110483905Y-92707502D01*
X110632672Y-92934410D01*
X110813345Y-93136837D01*
X110814747Y-93138003D01*
X110814748Y-93138004D01*
X110852827Y-93169674D01*
X111021954Y-93310335D01*
X111253916Y-93451093D01*
X111255590Y-93451795D01*
X111255594Y-93451797D01*
X111306034Y-93472948D01*
X111504136Y-93556019D01*
X111767116Y-93622808D01*
X111768930Y-93622991D01*
X111768932Y-93622991D01*
X111832249Y-93629367D01*
X111992470Y-93645500D01*
X112153884Y-93645500D01*
X112154779Y-93645433D01*
X112154792Y-93645433D01*
X112353772Y-93630646D01*
X112353778Y-93630645D01*
X112355583Y-93630511D01*
X112391610Y-93622359D01*
X112618441Y-93571033D01*
X112618444Y-93571032D01*
X112620221Y-93570630D01*
X112873102Y-93472290D01*
X113108669Y-93337652D01*
X113321748Y-93169674D01*
X113507658Y-92972046D01*
X113662315Y-92749109D01*
X113683648Y-92705851D01*
X113781513Y-92507398D01*
X113782320Y-92505762D01*
X113865039Y-92247350D01*
X113872946Y-92198803D01*
X113908360Y-91981348D01*
X113908653Y-91979549D01*
X113909279Y-91931757D01*
X121687795Y-91931757D01*
X121724384Y-92200607D01*
X121800310Y-92461096D01*
X121801069Y-92462743D01*
X121801070Y-92462745D01*
X121870571Y-92613505D01*
X121913905Y-92707502D01*
X122062672Y-92934410D01*
X122243345Y-93136837D01*
X122244747Y-93138003D01*
X122244748Y-93138004D01*
X122282827Y-93169674D01*
X122451954Y-93310335D01*
X122683916Y-93451093D01*
X122685590Y-93451795D01*
X122685594Y-93451797D01*
X122736034Y-93472948D01*
X122934136Y-93556019D01*
X123197116Y-93622808D01*
X123198930Y-93622991D01*
X123198932Y-93622991D01*
X123262249Y-93629367D01*
X123422470Y-93645500D01*
X123583884Y-93645500D01*
X123584779Y-93645433D01*
X123584792Y-93645433D01*
X123783772Y-93630646D01*
X123783778Y-93630645D01*
X123785583Y-93630511D01*
X123821610Y-93622359D01*
X124048441Y-93571033D01*
X124048444Y-93571032D01*
X124050221Y-93570630D01*
X124303102Y-93472290D01*
X124538669Y-93337652D01*
X124751748Y-93169674D01*
X124937658Y-92972046D01*
X125092315Y-92749109D01*
X125113648Y-92705851D01*
X125211513Y-92507398D01*
X125212320Y-92505762D01*
X125295039Y-92247350D01*
X125302946Y-92198803D01*
X125338360Y-91981348D01*
X125338653Y-91979549D01*
X125339279Y-91931757D01*
X138657795Y-91931757D01*
X138694384Y-92200607D01*
X138770310Y-92461096D01*
X138771069Y-92462743D01*
X138771070Y-92462745D01*
X138840571Y-92613505D01*
X138883905Y-92707502D01*
X139032672Y-92934410D01*
X139213345Y-93136837D01*
X139214747Y-93138003D01*
X139214748Y-93138004D01*
X139252827Y-93169674D01*
X139421954Y-93310335D01*
X139653916Y-93451093D01*
X139655590Y-93451795D01*
X139655594Y-93451797D01*
X139706034Y-93472948D01*
X139904136Y-93556019D01*
X140167116Y-93622808D01*
X140168930Y-93622991D01*
X140168932Y-93622991D01*
X140232249Y-93629367D01*
X140392470Y-93645500D01*
X140553884Y-93645500D01*
X140554779Y-93645433D01*
X140554792Y-93645433D01*
X140753772Y-93630646D01*
X140753778Y-93630645D01*
X140755583Y-93630511D01*
X140791610Y-93622359D01*
X141018441Y-93571033D01*
X141018444Y-93571032D01*
X141020221Y-93570630D01*
X141273102Y-93472290D01*
X141508669Y-93337652D01*
X141721748Y-93169674D01*
X141907658Y-92972046D01*
X142062315Y-92749109D01*
X142083648Y-92705851D01*
X142181513Y-92507398D01*
X142182320Y-92505762D01*
X142265039Y-92247350D01*
X142272946Y-92198803D01*
X142308360Y-91981348D01*
X142308653Y-91979549D01*
X142309279Y-91931757D01*
X150087795Y-91931757D01*
X150124384Y-92200607D01*
X150200310Y-92461096D01*
X150201069Y-92462743D01*
X150201070Y-92462745D01*
X150270571Y-92613505D01*
X150313905Y-92707502D01*
X150462672Y-92934410D01*
X150643345Y-93136837D01*
X150644747Y-93138003D01*
X150644748Y-93138004D01*
X150682827Y-93169674D01*
X150851954Y-93310335D01*
X151083916Y-93451093D01*
X151085590Y-93451795D01*
X151085594Y-93451797D01*
X151136034Y-93472948D01*
X151334136Y-93556019D01*
X151597116Y-93622808D01*
X151598930Y-93622991D01*
X151598932Y-93622991D01*
X151662249Y-93629367D01*
X151822470Y-93645500D01*
X151983884Y-93645500D01*
X151984779Y-93645433D01*
X151984792Y-93645433D01*
X152183772Y-93630646D01*
X152183778Y-93630645D01*
X152185583Y-93630511D01*
X152221610Y-93622359D01*
X152448441Y-93571033D01*
X152448444Y-93571032D01*
X152450221Y-93570630D01*
X152703102Y-93472290D01*
X152938669Y-93337652D01*
X153151748Y-93169674D01*
X153337658Y-92972046D01*
X153492315Y-92749109D01*
X153513648Y-92705851D01*
X153611513Y-92507398D01*
X153612320Y-92505762D01*
X153695039Y-92247350D01*
X153702946Y-92198803D01*
X153738360Y-91981348D01*
X153738653Y-91979549D01*
X153739303Y-91929944D01*
X153742181Y-91710056D01*
X153742205Y-91708243D01*
X153705616Y-91439393D01*
X153629690Y-91178904D01*
X153608345Y-91132602D01*
X153516856Y-90934149D01*
X153516095Y-90932498D01*
X153367328Y-90705590D01*
X153186655Y-90503163D01*
X153148758Y-90471644D01*
X152979443Y-90330827D01*
X152978046Y-90329665D01*
X152746084Y-90188907D01*
X152744410Y-90188205D01*
X152744406Y-90188203D01*
X152497545Y-90084686D01*
X152497546Y-90084686D01*
X152495864Y-90083981D01*
X152232884Y-90017192D01*
X152231070Y-90017009D01*
X152231068Y-90017009D01*
X152160358Y-90009889D01*
X152007530Y-89994500D01*
X151846116Y-89994500D01*
X151845221Y-89994567D01*
X151845208Y-89994567D01*
X151646228Y-90009354D01*
X151646222Y-90009355D01*
X151644417Y-90009489D01*
X151642650Y-90009889D01*
X151642649Y-90009889D01*
X151381559Y-90068967D01*
X151381556Y-90068968D01*
X151379779Y-90069370D01*
X151126898Y-90167710D01*
X150891331Y-90302348D01*
X150678252Y-90470326D01*
X150492342Y-90667954D01*
X150337685Y-90890891D01*
X150336881Y-90892521D01*
X150336880Y-90892523D01*
X150281673Y-91004472D01*
X150217680Y-91134238D01*
X150134961Y-91392650D01*
X150134670Y-91394437D01*
X150134669Y-91394441D01*
X150093618Y-91646504D01*
X150091347Y-91660451D01*
X150091323Y-91662272D01*
X150091323Y-91662274D01*
X150090149Y-91751935D01*
X150087795Y-91931757D01*
X142309279Y-91931757D01*
X142309303Y-91929944D01*
X142312181Y-91710056D01*
X142312205Y-91708243D01*
X142275616Y-91439393D01*
X142199690Y-91178904D01*
X142178345Y-91132602D01*
X142086856Y-90934149D01*
X142086095Y-90932498D01*
X141937328Y-90705590D01*
X141756655Y-90503163D01*
X141718758Y-90471644D01*
X141549443Y-90330827D01*
X141548046Y-90329665D01*
X141316084Y-90188907D01*
X141314410Y-90188205D01*
X141314406Y-90188203D01*
X141067545Y-90084686D01*
X141067546Y-90084686D01*
X141065864Y-90083981D01*
X140802884Y-90017192D01*
X140801070Y-90017009D01*
X140801068Y-90017009D01*
X140730358Y-90009889D01*
X140577530Y-89994500D01*
X140416116Y-89994500D01*
X140415221Y-89994567D01*
X140415208Y-89994567D01*
X140216228Y-90009354D01*
X140216222Y-90009355D01*
X140214417Y-90009489D01*
X140212650Y-90009889D01*
X140212649Y-90009889D01*
X139951559Y-90068967D01*
X139951556Y-90068968D01*
X139949779Y-90069370D01*
X139696898Y-90167710D01*
X139461331Y-90302348D01*
X139248252Y-90470326D01*
X139062342Y-90667954D01*
X138907685Y-90890891D01*
X138906881Y-90892521D01*
X138906880Y-90892523D01*
X138851673Y-91004472D01*
X138787680Y-91134238D01*
X138704961Y-91392650D01*
X138704670Y-91394437D01*
X138704669Y-91394441D01*
X138663618Y-91646504D01*
X138661347Y-91660451D01*
X138661323Y-91662272D01*
X138661323Y-91662274D01*
X138660149Y-91751935D01*
X138657795Y-91931757D01*
X125339279Y-91931757D01*
X125339303Y-91929944D01*
X125342181Y-91710056D01*
X125342205Y-91708243D01*
X125305616Y-91439393D01*
X125229690Y-91178904D01*
X125208345Y-91132602D01*
X125116856Y-90934149D01*
X125116095Y-90932498D01*
X124967328Y-90705590D01*
X124786655Y-90503163D01*
X124748758Y-90471644D01*
X124579443Y-90330827D01*
X124578046Y-90329665D01*
X124346084Y-90188907D01*
X124344410Y-90188205D01*
X124344406Y-90188203D01*
X124097545Y-90084686D01*
X124097546Y-90084686D01*
X124095864Y-90083981D01*
X123832884Y-90017192D01*
X123831070Y-90017009D01*
X123831068Y-90017009D01*
X123760358Y-90009889D01*
X123607530Y-89994500D01*
X123446116Y-89994500D01*
X123445221Y-89994567D01*
X123445208Y-89994567D01*
X123246228Y-90009354D01*
X123246222Y-90009355D01*
X123244417Y-90009489D01*
X123242650Y-90009889D01*
X123242649Y-90009889D01*
X122981559Y-90068967D01*
X122981556Y-90068968D01*
X122979779Y-90069370D01*
X122726898Y-90167710D01*
X122491331Y-90302348D01*
X122278252Y-90470326D01*
X122092342Y-90667954D01*
X121937685Y-90890891D01*
X121936881Y-90892521D01*
X121936880Y-90892523D01*
X121881673Y-91004472D01*
X121817680Y-91134238D01*
X121734961Y-91392650D01*
X121734670Y-91394437D01*
X121734669Y-91394441D01*
X121693618Y-91646504D01*
X121691347Y-91660451D01*
X121691323Y-91662272D01*
X121691323Y-91662274D01*
X121690149Y-91751935D01*
X121687795Y-91931757D01*
X113909279Y-91931757D01*
X113909303Y-91929944D01*
X113912181Y-91710056D01*
X113912205Y-91708243D01*
X113875616Y-91439393D01*
X113799690Y-91178904D01*
X113778345Y-91132602D01*
X113686856Y-90934149D01*
X113686095Y-90932498D01*
X113537328Y-90705590D01*
X113356655Y-90503163D01*
X113318758Y-90471644D01*
X113149443Y-90330827D01*
X113148046Y-90329665D01*
X112916084Y-90188907D01*
X112914410Y-90188205D01*
X112914406Y-90188203D01*
X112667545Y-90084686D01*
X112667546Y-90084686D01*
X112665864Y-90083981D01*
X112402884Y-90017192D01*
X112401070Y-90017009D01*
X112401068Y-90017009D01*
X112330358Y-90009889D01*
X112177530Y-89994500D01*
X112016116Y-89994500D01*
X112015221Y-89994567D01*
X112015208Y-89994567D01*
X111816228Y-90009354D01*
X111816222Y-90009355D01*
X111814417Y-90009489D01*
X111812650Y-90009889D01*
X111812649Y-90009889D01*
X111551559Y-90068967D01*
X111551556Y-90068968D01*
X111549779Y-90069370D01*
X111296898Y-90167710D01*
X111061331Y-90302348D01*
X110848252Y-90470326D01*
X110662342Y-90667954D01*
X110507685Y-90890891D01*
X110506881Y-90892521D01*
X110506880Y-90892523D01*
X110451673Y-91004472D01*
X110387680Y-91134238D01*
X110304961Y-91392650D01*
X110304670Y-91394437D01*
X110304669Y-91394441D01*
X110263618Y-91646504D01*
X110261347Y-91660451D01*
X110261323Y-91662272D01*
X110261323Y-91662274D01*
X110260149Y-91751935D01*
X110257795Y-91931757D01*
X100100500Y-91931757D01*
X100100500Y-86183748D01*
X112450500Y-86183748D01*
X112462133Y-86242231D01*
X112506448Y-86308552D01*
X112572769Y-86352867D01*
X112631252Y-86364500D01*
X114078748Y-86364500D01*
X114137231Y-86352867D01*
X114203552Y-86308552D01*
X114247867Y-86242231D01*
X114259500Y-86183748D01*
X114259500Y-85460000D01*
X114985518Y-85460000D01*
X115005392Y-85649092D01*
X115064147Y-85829920D01*
X115159214Y-85994580D01*
X115160935Y-85996492D01*
X115160937Y-85996494D01*
X115284722Y-86133972D01*
X115284726Y-86133976D01*
X115286438Y-86135877D01*
X115440259Y-86247635D01*
X115613955Y-86324969D01*
X115706944Y-86344734D01*
X115797424Y-86363967D01*
X115797427Y-86363967D01*
X115799933Y-86364500D01*
X115990067Y-86364500D01*
X115992573Y-86363967D01*
X115992576Y-86363967D01*
X116083056Y-86344734D01*
X116176045Y-86324969D01*
X116349741Y-86247635D01*
X116503562Y-86135877D01*
X116505274Y-86133976D01*
X116505278Y-86133972D01*
X116629063Y-85996494D01*
X116629065Y-85996492D01*
X116630786Y-85994580D01*
X116725853Y-85829920D01*
X116784608Y-85649092D01*
X116804482Y-85460000D01*
X117525518Y-85460000D01*
X117545392Y-85649092D01*
X117604147Y-85829920D01*
X117699214Y-85994580D01*
X117700935Y-85996492D01*
X117700937Y-85996494D01*
X117824722Y-86133972D01*
X117824726Y-86133976D01*
X117826438Y-86135877D01*
X117980259Y-86247635D01*
X118153955Y-86324969D01*
X118246944Y-86344734D01*
X118337424Y-86363967D01*
X118337427Y-86363967D01*
X118339933Y-86364500D01*
X118530067Y-86364500D01*
X118532573Y-86363967D01*
X118532576Y-86363967D01*
X118623056Y-86344734D01*
X118716045Y-86324969D01*
X118889741Y-86247635D01*
X119043562Y-86135877D01*
X119045274Y-86133976D01*
X119045278Y-86133972D01*
X119169063Y-85996494D01*
X119169065Y-85996492D01*
X119170786Y-85994580D01*
X119265853Y-85829920D01*
X119324608Y-85649092D01*
X119344482Y-85460000D01*
X120065518Y-85460000D01*
X120085392Y-85649092D01*
X120144147Y-85829920D01*
X120239214Y-85994580D01*
X120240935Y-85996492D01*
X120240937Y-85996494D01*
X120364722Y-86133972D01*
X120364726Y-86133976D01*
X120366438Y-86135877D01*
X120520259Y-86247635D01*
X120693955Y-86324969D01*
X120786944Y-86344734D01*
X120877424Y-86363967D01*
X120877427Y-86363967D01*
X120879933Y-86364500D01*
X121070067Y-86364500D01*
X121072573Y-86363967D01*
X121072576Y-86363967D01*
X121163056Y-86344734D01*
X121256045Y-86324969D01*
X121429741Y-86247635D01*
X121517674Y-86183748D01*
X140850500Y-86183748D01*
X140862133Y-86242231D01*
X140906448Y-86308552D01*
X140972769Y-86352867D01*
X141031252Y-86364500D01*
X142478748Y-86364500D01*
X142537231Y-86352867D01*
X142603552Y-86308552D01*
X142647867Y-86242231D01*
X142659500Y-86183748D01*
X142659500Y-85460000D01*
X143385518Y-85460000D01*
X143405392Y-85649092D01*
X143464147Y-85829920D01*
X143559214Y-85994580D01*
X143560935Y-85996492D01*
X143560937Y-85996494D01*
X143684722Y-86133972D01*
X143684726Y-86133976D01*
X143686438Y-86135877D01*
X143840259Y-86247635D01*
X144013955Y-86324969D01*
X144106944Y-86344734D01*
X144197424Y-86363967D01*
X144197427Y-86363967D01*
X144199933Y-86364500D01*
X144390067Y-86364500D01*
X144392573Y-86363967D01*
X144392576Y-86363967D01*
X144483056Y-86344734D01*
X144576045Y-86324969D01*
X144749741Y-86247635D01*
X144903562Y-86135877D01*
X144905274Y-86133976D01*
X144905278Y-86133972D01*
X145029063Y-85996494D01*
X145029065Y-85996492D01*
X145030786Y-85994580D01*
X145125853Y-85829920D01*
X145184608Y-85649092D01*
X145204482Y-85460000D01*
X145925518Y-85460000D01*
X145945392Y-85649092D01*
X146004147Y-85829920D01*
X146099214Y-85994580D01*
X146100935Y-85996492D01*
X146100937Y-85996494D01*
X146224722Y-86133972D01*
X146224726Y-86133976D01*
X146226438Y-86135877D01*
X146380259Y-86247635D01*
X146553955Y-86324969D01*
X146646944Y-86344734D01*
X146737424Y-86363967D01*
X146737427Y-86363967D01*
X146739933Y-86364500D01*
X146930067Y-86364500D01*
X146932573Y-86363967D01*
X146932576Y-86363967D01*
X147023056Y-86344734D01*
X147116045Y-86324969D01*
X147289741Y-86247635D01*
X147443562Y-86135877D01*
X147445274Y-86133976D01*
X147445278Y-86133972D01*
X147569063Y-85996494D01*
X147569065Y-85996492D01*
X147570786Y-85994580D01*
X147665853Y-85829920D01*
X147724608Y-85649092D01*
X147744482Y-85460000D01*
X148465518Y-85460000D01*
X148485392Y-85649092D01*
X148544147Y-85829920D01*
X148639214Y-85994580D01*
X148640935Y-85996492D01*
X148640937Y-85996494D01*
X148764722Y-86133972D01*
X148764726Y-86133976D01*
X148766438Y-86135877D01*
X148920259Y-86247635D01*
X149093955Y-86324969D01*
X149186944Y-86344734D01*
X149277424Y-86363967D01*
X149277427Y-86363967D01*
X149279933Y-86364500D01*
X149470067Y-86364500D01*
X149472573Y-86363967D01*
X149472576Y-86363967D01*
X149563056Y-86344734D01*
X149656045Y-86324969D01*
X149829741Y-86247635D01*
X149983562Y-86135877D01*
X149985274Y-86133976D01*
X149985278Y-86133972D01*
X150109063Y-85996494D01*
X150109065Y-85996492D01*
X150110786Y-85994580D01*
X150205853Y-85829920D01*
X150264608Y-85649092D01*
X150284482Y-85460000D01*
X150264608Y-85270908D01*
X150205853Y-85090080D01*
X150110786Y-84925420D01*
X150109063Y-84923506D01*
X149985278Y-84786028D01*
X149985274Y-84786024D01*
X149983562Y-84784123D01*
X149829741Y-84672365D01*
X149656045Y-84595031D01*
X149524796Y-84567133D01*
X149472576Y-84556033D01*
X149472573Y-84556033D01*
X149470067Y-84555500D01*
X149279933Y-84555500D01*
X149277427Y-84556033D01*
X149277424Y-84556033D01*
X149225204Y-84567133D01*
X149093955Y-84595031D01*
X148920259Y-84672365D01*
X148766438Y-84784123D01*
X148764726Y-84786024D01*
X148764722Y-84786028D01*
X148640937Y-84923506D01*
X148639214Y-84925420D01*
X148544147Y-85090080D01*
X148485392Y-85270908D01*
X148465518Y-85460000D01*
X147744482Y-85460000D01*
X147724608Y-85270908D01*
X147665853Y-85090080D01*
X147570786Y-84925420D01*
X147569063Y-84923506D01*
X147445278Y-84786028D01*
X147445274Y-84786024D01*
X147443562Y-84784123D01*
X147289741Y-84672365D01*
X147116045Y-84595031D01*
X146984796Y-84567133D01*
X146932576Y-84556033D01*
X146932573Y-84556033D01*
X146930067Y-84555500D01*
X146739933Y-84555500D01*
X146737427Y-84556033D01*
X146737424Y-84556033D01*
X146685204Y-84567133D01*
X146553955Y-84595031D01*
X146380259Y-84672365D01*
X146226438Y-84784123D01*
X146224726Y-84786024D01*
X146224722Y-84786028D01*
X146100937Y-84923506D01*
X146099214Y-84925420D01*
X146004147Y-85090080D01*
X145945392Y-85270908D01*
X145925518Y-85460000D01*
X145204482Y-85460000D01*
X145184608Y-85270908D01*
X145125853Y-85090080D01*
X145030786Y-84925420D01*
X145029063Y-84923506D01*
X144905278Y-84786028D01*
X144905274Y-84786024D01*
X144903562Y-84784123D01*
X144749741Y-84672365D01*
X144576045Y-84595031D01*
X144444796Y-84567133D01*
X144392576Y-84556033D01*
X144392573Y-84556033D01*
X144390067Y-84555500D01*
X144199933Y-84555500D01*
X144197427Y-84556033D01*
X144197424Y-84556033D01*
X144145204Y-84567133D01*
X144013955Y-84595031D01*
X143840259Y-84672365D01*
X143686438Y-84784123D01*
X143684726Y-84786024D01*
X143684722Y-84786028D01*
X143560937Y-84923506D01*
X143559214Y-84925420D01*
X143464147Y-85090080D01*
X143405392Y-85270908D01*
X143385518Y-85460000D01*
X142659500Y-85460000D01*
X142659500Y-84736252D01*
X142647867Y-84677769D01*
X142603552Y-84611448D01*
X142537231Y-84567133D01*
X142478748Y-84555500D01*
X141031252Y-84555500D01*
X140972769Y-84567133D01*
X140906448Y-84611448D01*
X140862133Y-84677769D01*
X140850500Y-84736252D01*
X140850500Y-86183748D01*
X121517674Y-86183748D01*
X121583562Y-86135877D01*
X121585274Y-86133976D01*
X121585278Y-86133972D01*
X121709063Y-85996494D01*
X121709065Y-85996492D01*
X121710786Y-85994580D01*
X121805853Y-85829920D01*
X121864608Y-85649092D01*
X121884482Y-85460000D01*
X121864608Y-85270908D01*
X121805853Y-85090080D01*
X121710786Y-84925420D01*
X121709063Y-84923506D01*
X121585278Y-84786028D01*
X121585274Y-84786024D01*
X121583562Y-84784123D01*
X121429741Y-84672365D01*
X121256045Y-84595031D01*
X121124796Y-84567133D01*
X121072576Y-84556033D01*
X121072573Y-84556033D01*
X121070067Y-84555500D01*
X120879933Y-84555500D01*
X120877427Y-84556033D01*
X120877424Y-84556033D01*
X120825204Y-84567133D01*
X120693955Y-84595031D01*
X120520259Y-84672365D01*
X120366438Y-84784123D01*
X120364726Y-84786024D01*
X120364722Y-84786028D01*
X120240937Y-84923506D01*
X120239214Y-84925420D01*
X120144147Y-85090080D01*
X120085392Y-85270908D01*
X120065518Y-85460000D01*
X119344482Y-85460000D01*
X119324608Y-85270908D01*
X119265853Y-85090080D01*
X119170786Y-84925420D01*
X119169063Y-84923506D01*
X119045278Y-84786028D01*
X119045274Y-84786024D01*
X119043562Y-84784123D01*
X118889741Y-84672365D01*
X118716045Y-84595031D01*
X118584796Y-84567133D01*
X118532576Y-84556033D01*
X118532573Y-84556033D01*
X118530067Y-84555500D01*
X118339933Y-84555500D01*
X118337427Y-84556033D01*
X118337424Y-84556033D01*
X118285204Y-84567133D01*
X118153955Y-84595031D01*
X117980259Y-84672365D01*
X117826438Y-84784123D01*
X117824726Y-84786024D01*
X117824722Y-84786028D01*
X117700937Y-84923506D01*
X117699214Y-84925420D01*
X117604147Y-85090080D01*
X117545392Y-85270908D01*
X117525518Y-85460000D01*
X116804482Y-85460000D01*
X116784608Y-85270908D01*
X116725853Y-85090080D01*
X116630786Y-84925420D01*
X116629063Y-84923506D01*
X116505278Y-84786028D01*
X116505274Y-84786024D01*
X116503562Y-84784123D01*
X116349741Y-84672365D01*
X116176045Y-84595031D01*
X116044796Y-84567133D01*
X115992576Y-84556033D01*
X115992573Y-84556033D01*
X115990067Y-84555500D01*
X115799933Y-84555500D01*
X115797427Y-84556033D01*
X115797424Y-84556033D01*
X115745204Y-84567133D01*
X115613955Y-84595031D01*
X115440259Y-84672365D01*
X115286438Y-84784123D01*
X115284726Y-84786024D01*
X115284722Y-84786028D01*
X115160937Y-84923506D01*
X115159214Y-84925420D01*
X115064147Y-85090080D01*
X115005392Y-85270908D01*
X114985518Y-85460000D01*
X114259500Y-85460000D01*
X114259500Y-84736252D01*
X114247867Y-84677769D01*
X114203552Y-84611448D01*
X114137231Y-84567133D01*
X114078748Y-84555500D01*
X112631252Y-84555500D01*
X112572769Y-84567133D01*
X112506448Y-84611448D01*
X112462133Y-84677769D01*
X112450500Y-84736252D01*
X112450500Y-86183748D01*
X100100500Y-86183748D01*
X100100500Y-83938170D01*
X116510078Y-83938170D01*
X116511727Y-83942152D01*
X116554934Y-83972406D01*
X116558621Y-83974535D01*
X116746950Y-84062354D01*
X116750955Y-84063812D01*
X116951662Y-84117592D01*
X116955866Y-84118333D01*
X117162874Y-84136444D01*
X117167126Y-84136444D01*
X117374134Y-84118333D01*
X117378338Y-84117592D01*
X117579045Y-84063812D01*
X117583050Y-84062354D01*
X117771379Y-83974535D01*
X117775066Y-83972406D01*
X117815974Y-83943762D01*
X117819537Y-83938170D01*
X144910078Y-83938170D01*
X144911727Y-83942152D01*
X144954934Y-83972406D01*
X144958621Y-83974535D01*
X145146950Y-84062354D01*
X145150955Y-84063812D01*
X145351662Y-84117592D01*
X145355866Y-84118333D01*
X145562874Y-84136444D01*
X145567126Y-84136444D01*
X145774134Y-84118333D01*
X145778338Y-84117592D01*
X145979045Y-84063812D01*
X145983050Y-84062354D01*
X146171379Y-83974535D01*
X146175066Y-83972406D01*
X146215974Y-83943762D01*
X146219984Y-83937468D01*
X146219051Y-83933261D01*
X145571893Y-83286103D01*
X145565000Y-83283248D01*
X145558107Y-83286103D01*
X144912933Y-83931277D01*
X144910078Y-83938170D01*
X117819537Y-83938170D01*
X117819984Y-83937468D01*
X117819051Y-83933261D01*
X117171893Y-83286103D01*
X117165000Y-83283248D01*
X117158107Y-83286103D01*
X116512933Y-83931277D01*
X116510078Y-83938170D01*
X100100500Y-83938170D01*
X100100500Y-82920000D01*
X113715518Y-82920000D01*
X113735392Y-83109092D01*
X113794147Y-83289920D01*
X113889214Y-83454580D01*
X113890935Y-83456492D01*
X113890937Y-83456494D01*
X114014722Y-83593972D01*
X114014726Y-83593976D01*
X114016438Y-83595877D01*
X114170259Y-83707635D01*
X114343955Y-83784969D01*
X114436944Y-83804735D01*
X114527424Y-83823967D01*
X114527427Y-83823967D01*
X114529933Y-83824500D01*
X114720067Y-83824500D01*
X114722573Y-83823967D01*
X114722576Y-83823967D01*
X114813056Y-83804735D01*
X114906045Y-83784969D01*
X115079741Y-83707635D01*
X115233562Y-83595877D01*
X115235274Y-83593976D01*
X115235278Y-83593972D01*
X115359063Y-83456494D01*
X115359065Y-83456492D01*
X115360786Y-83454580D01*
X115455853Y-83289920D01*
X115514608Y-83109092D01*
X115534259Y-82922126D01*
X115948556Y-82922126D01*
X115966667Y-83129134D01*
X115967408Y-83133338D01*
X116021188Y-83334045D01*
X116022646Y-83338050D01*
X116110465Y-83526379D01*
X116112594Y-83530066D01*
X116141238Y-83570974D01*
X116147532Y-83574984D01*
X116151739Y-83574051D01*
X116798897Y-82926893D01*
X116801752Y-82920000D01*
X117528248Y-82920000D01*
X117531103Y-82926893D01*
X118176277Y-83572067D01*
X118183170Y-83574922D01*
X118187152Y-83573273D01*
X118217406Y-83530066D01*
X118219535Y-83526379D01*
X118307354Y-83338050D01*
X118308812Y-83334045D01*
X118362592Y-83133338D01*
X118363333Y-83129134D01*
X118381444Y-82922126D01*
X118381444Y-82920000D01*
X118795518Y-82920000D01*
X118815392Y-83109092D01*
X118874147Y-83289920D01*
X118969214Y-83454580D01*
X118970935Y-83456492D01*
X118970937Y-83456494D01*
X119094722Y-83593972D01*
X119094726Y-83593976D01*
X119096438Y-83595877D01*
X119250259Y-83707635D01*
X119423955Y-83784969D01*
X119516944Y-83804735D01*
X119607424Y-83823967D01*
X119607427Y-83823967D01*
X119609933Y-83824500D01*
X119800067Y-83824500D01*
X119802573Y-83823967D01*
X119802576Y-83823967D01*
X119893056Y-83804735D01*
X119986045Y-83784969D01*
X120159741Y-83707635D01*
X120313562Y-83595877D01*
X120315274Y-83593976D01*
X120315278Y-83593972D01*
X120439063Y-83456494D01*
X120439065Y-83456492D01*
X120440786Y-83454580D01*
X120535853Y-83289920D01*
X120594608Y-83109092D01*
X120614482Y-82920000D01*
X121335518Y-82920000D01*
X121355392Y-83109092D01*
X121414147Y-83289920D01*
X121509214Y-83454580D01*
X121510935Y-83456492D01*
X121510937Y-83456494D01*
X121634722Y-83593972D01*
X121634726Y-83593976D01*
X121636438Y-83595877D01*
X121790259Y-83707635D01*
X121963955Y-83784969D01*
X122056944Y-83804735D01*
X122147424Y-83823967D01*
X122147427Y-83823967D01*
X122149933Y-83824500D01*
X122340067Y-83824500D01*
X122342573Y-83823967D01*
X122342576Y-83823967D01*
X122433056Y-83804735D01*
X122526045Y-83784969D01*
X122699741Y-83707635D01*
X122853562Y-83595877D01*
X122855274Y-83593976D01*
X122855278Y-83593972D01*
X122979063Y-83456494D01*
X122979065Y-83456492D01*
X122980786Y-83454580D01*
X123075853Y-83289920D01*
X123134608Y-83109092D01*
X123154482Y-82920000D01*
X142115518Y-82920000D01*
X142135392Y-83109092D01*
X142194147Y-83289920D01*
X142289214Y-83454580D01*
X142290935Y-83456492D01*
X142290937Y-83456494D01*
X142414722Y-83593972D01*
X142414726Y-83593976D01*
X142416438Y-83595877D01*
X142570259Y-83707635D01*
X142743955Y-83784969D01*
X142836944Y-83804735D01*
X142927424Y-83823967D01*
X142927427Y-83823967D01*
X142929933Y-83824500D01*
X143120067Y-83824500D01*
X143122573Y-83823967D01*
X143122576Y-83823967D01*
X143213056Y-83804735D01*
X143306045Y-83784969D01*
X143479741Y-83707635D01*
X143633562Y-83595877D01*
X143635274Y-83593976D01*
X143635278Y-83593972D01*
X143759063Y-83456494D01*
X143759065Y-83456492D01*
X143760786Y-83454580D01*
X143855853Y-83289920D01*
X143914608Y-83109092D01*
X143934259Y-82922126D01*
X144348556Y-82922126D01*
X144366667Y-83129134D01*
X144367408Y-83133338D01*
X144421188Y-83334045D01*
X144422646Y-83338050D01*
X144510465Y-83526379D01*
X144512594Y-83530066D01*
X144541238Y-83570974D01*
X144547532Y-83574984D01*
X144551739Y-83574051D01*
X145198897Y-82926893D01*
X145201752Y-82920000D01*
X145928248Y-82920000D01*
X145931103Y-82926893D01*
X146576277Y-83572067D01*
X146583170Y-83574922D01*
X146587152Y-83573273D01*
X146617406Y-83530066D01*
X146619535Y-83526379D01*
X146707354Y-83338050D01*
X146708812Y-83334045D01*
X146762592Y-83133338D01*
X146763333Y-83129134D01*
X146781444Y-82922126D01*
X146781444Y-82920000D01*
X147195518Y-82920000D01*
X147215392Y-83109092D01*
X147274147Y-83289920D01*
X147369214Y-83454580D01*
X147370935Y-83456492D01*
X147370937Y-83456494D01*
X147494722Y-83593972D01*
X147494726Y-83593976D01*
X147496438Y-83595877D01*
X147650259Y-83707635D01*
X147823955Y-83784969D01*
X147916944Y-83804735D01*
X148007424Y-83823967D01*
X148007427Y-83823967D01*
X148009933Y-83824500D01*
X148200067Y-83824500D01*
X148202573Y-83823967D01*
X148202576Y-83823967D01*
X148293056Y-83804735D01*
X148386045Y-83784969D01*
X148559741Y-83707635D01*
X148713562Y-83595877D01*
X148715274Y-83593976D01*
X148715278Y-83593972D01*
X148839063Y-83456494D01*
X148839065Y-83456492D01*
X148840786Y-83454580D01*
X148935853Y-83289920D01*
X148994608Y-83109092D01*
X149014482Y-82920000D01*
X149735518Y-82920000D01*
X149755392Y-83109092D01*
X149814147Y-83289920D01*
X149909214Y-83454580D01*
X149910935Y-83456492D01*
X149910937Y-83456494D01*
X150034722Y-83593972D01*
X150034726Y-83593976D01*
X150036438Y-83595877D01*
X150190259Y-83707635D01*
X150363955Y-83784969D01*
X150456944Y-83804735D01*
X150547424Y-83823967D01*
X150547427Y-83823967D01*
X150549933Y-83824500D01*
X150740067Y-83824500D01*
X150742573Y-83823967D01*
X150742576Y-83823967D01*
X150833056Y-83804735D01*
X150926045Y-83784969D01*
X151099741Y-83707635D01*
X151253562Y-83595877D01*
X151255274Y-83593976D01*
X151255278Y-83593972D01*
X151379063Y-83456494D01*
X151379065Y-83456492D01*
X151380786Y-83454580D01*
X151475853Y-83289920D01*
X151534608Y-83109092D01*
X151554482Y-82920000D01*
X151534608Y-82730908D01*
X151475853Y-82550080D01*
X151380786Y-82385420D01*
X151379063Y-82383506D01*
X151255278Y-82246028D01*
X151255274Y-82246024D01*
X151253562Y-82244123D01*
X151099741Y-82132365D01*
X150926045Y-82055031D01*
X150833056Y-82035266D01*
X150742576Y-82016033D01*
X150742573Y-82016033D01*
X150740067Y-82015500D01*
X150549933Y-82015500D01*
X150547427Y-82016033D01*
X150547424Y-82016033D01*
X150456944Y-82035266D01*
X150363955Y-82055031D01*
X150190259Y-82132365D01*
X150036438Y-82244123D01*
X150034726Y-82246024D01*
X150034722Y-82246028D01*
X149910937Y-82383506D01*
X149909214Y-82385420D01*
X149814147Y-82550080D01*
X149755392Y-82730908D01*
X149735518Y-82920000D01*
X149014482Y-82920000D01*
X148994608Y-82730908D01*
X148935853Y-82550080D01*
X148840786Y-82385420D01*
X148839063Y-82383506D01*
X148715278Y-82246028D01*
X148715274Y-82246024D01*
X148713562Y-82244123D01*
X148559741Y-82132365D01*
X148386045Y-82055031D01*
X148293056Y-82035266D01*
X148202576Y-82016033D01*
X148202573Y-82016033D01*
X148200067Y-82015500D01*
X148009933Y-82015500D01*
X148007427Y-82016033D01*
X148007424Y-82016033D01*
X147916944Y-82035266D01*
X147823955Y-82055031D01*
X147650259Y-82132365D01*
X147496438Y-82244123D01*
X147494726Y-82246024D01*
X147494722Y-82246028D01*
X147370937Y-82383506D01*
X147369214Y-82385420D01*
X147274147Y-82550080D01*
X147215392Y-82730908D01*
X147195518Y-82920000D01*
X146781444Y-82920000D01*
X146781444Y-82917874D01*
X146763333Y-82710866D01*
X146762592Y-82706662D01*
X146708812Y-82505955D01*
X146707354Y-82501950D01*
X146619535Y-82313621D01*
X146617406Y-82309934D01*
X146588762Y-82269026D01*
X146582468Y-82265016D01*
X146578261Y-82265949D01*
X145931103Y-82913107D01*
X145928248Y-82920000D01*
X145201752Y-82920000D01*
X145198897Y-82913107D01*
X144553723Y-82267933D01*
X144546830Y-82265078D01*
X144542848Y-82266727D01*
X144512594Y-82309934D01*
X144510465Y-82313621D01*
X144422646Y-82501950D01*
X144421188Y-82505955D01*
X144367408Y-82706662D01*
X144366667Y-82710866D01*
X144348556Y-82917874D01*
X144348556Y-82922126D01*
X143934259Y-82922126D01*
X143934482Y-82920000D01*
X143914608Y-82730908D01*
X143855853Y-82550080D01*
X143760786Y-82385420D01*
X143759063Y-82383506D01*
X143635278Y-82246028D01*
X143635274Y-82246024D01*
X143633562Y-82244123D01*
X143479741Y-82132365D01*
X143306045Y-82055031D01*
X143213056Y-82035266D01*
X143122576Y-82016033D01*
X143122573Y-82016033D01*
X143120067Y-82015500D01*
X142929933Y-82015500D01*
X142927427Y-82016033D01*
X142927424Y-82016033D01*
X142836944Y-82035266D01*
X142743955Y-82055031D01*
X142570259Y-82132365D01*
X142416438Y-82244123D01*
X142414726Y-82246024D01*
X142414722Y-82246028D01*
X142290937Y-82383506D01*
X142289214Y-82385420D01*
X142194147Y-82550080D01*
X142135392Y-82730908D01*
X142115518Y-82920000D01*
X123154482Y-82920000D01*
X123134608Y-82730908D01*
X123075853Y-82550080D01*
X122980786Y-82385420D01*
X122979063Y-82383506D01*
X122855278Y-82246028D01*
X122855274Y-82246024D01*
X122853562Y-82244123D01*
X122699741Y-82132365D01*
X122526045Y-82055031D01*
X122433056Y-82035266D01*
X122342576Y-82016033D01*
X122342573Y-82016033D01*
X122340067Y-82015500D01*
X122149933Y-82015500D01*
X122147427Y-82016033D01*
X122147424Y-82016033D01*
X122056944Y-82035266D01*
X121963955Y-82055031D01*
X121790259Y-82132365D01*
X121636438Y-82244123D01*
X121634726Y-82246024D01*
X121634722Y-82246028D01*
X121510937Y-82383506D01*
X121509214Y-82385420D01*
X121414147Y-82550080D01*
X121355392Y-82730908D01*
X121335518Y-82920000D01*
X120614482Y-82920000D01*
X120594608Y-82730908D01*
X120535853Y-82550080D01*
X120440786Y-82385420D01*
X120439063Y-82383506D01*
X120315278Y-82246028D01*
X120315274Y-82246024D01*
X120313562Y-82244123D01*
X120159741Y-82132365D01*
X119986045Y-82055031D01*
X119893056Y-82035266D01*
X119802576Y-82016033D01*
X119802573Y-82016033D01*
X119800067Y-82015500D01*
X119609933Y-82015500D01*
X119607427Y-82016033D01*
X119607424Y-82016033D01*
X119516944Y-82035266D01*
X119423955Y-82055031D01*
X119250259Y-82132365D01*
X119096438Y-82244123D01*
X119094726Y-82246024D01*
X119094722Y-82246028D01*
X118970937Y-82383506D01*
X118969214Y-82385420D01*
X118874147Y-82550080D01*
X118815392Y-82730908D01*
X118795518Y-82920000D01*
X118381444Y-82920000D01*
X118381444Y-82917874D01*
X118363333Y-82710866D01*
X118362592Y-82706662D01*
X118308812Y-82505955D01*
X118307354Y-82501950D01*
X118219535Y-82313621D01*
X118217406Y-82309934D01*
X118188762Y-82269026D01*
X118182468Y-82265016D01*
X118178261Y-82265949D01*
X117531103Y-82913107D01*
X117528248Y-82920000D01*
X116801752Y-82920000D01*
X116798897Y-82913107D01*
X116153723Y-82267933D01*
X116146830Y-82265078D01*
X116142848Y-82266727D01*
X116112594Y-82309934D01*
X116110465Y-82313621D01*
X116022646Y-82501950D01*
X116021188Y-82505955D01*
X115967408Y-82706662D01*
X115966667Y-82710866D01*
X115948556Y-82917874D01*
X115948556Y-82922126D01*
X115534259Y-82922126D01*
X115534482Y-82920000D01*
X115514608Y-82730908D01*
X115455853Y-82550080D01*
X115360786Y-82385420D01*
X115359063Y-82383506D01*
X115235278Y-82246028D01*
X115235274Y-82246024D01*
X115233562Y-82244123D01*
X115079741Y-82132365D01*
X114906045Y-82055031D01*
X114813056Y-82035266D01*
X114722576Y-82016033D01*
X114722573Y-82016033D01*
X114720067Y-82015500D01*
X114529933Y-82015500D01*
X114527427Y-82016033D01*
X114527424Y-82016033D01*
X114436944Y-82035266D01*
X114343955Y-82055031D01*
X114170259Y-82132365D01*
X114016438Y-82244123D01*
X114014726Y-82246024D01*
X114014722Y-82246028D01*
X113890937Y-82383506D01*
X113889214Y-82385420D01*
X113794147Y-82550080D01*
X113735392Y-82730908D01*
X113715518Y-82920000D01*
X100100500Y-82920000D01*
X100100500Y-81902532D01*
X116510016Y-81902532D01*
X116510949Y-81906739D01*
X117158107Y-82553897D01*
X117165000Y-82556752D01*
X117171893Y-82553897D01*
X117817067Y-81908723D01*
X117819631Y-81902532D01*
X144910016Y-81902532D01*
X144910949Y-81906739D01*
X145558107Y-82553897D01*
X145565000Y-82556752D01*
X145571893Y-82553897D01*
X146217067Y-81908723D01*
X146219922Y-81901830D01*
X146218273Y-81897848D01*
X146175066Y-81867594D01*
X146171379Y-81865465D01*
X145983050Y-81777646D01*
X145979045Y-81776188D01*
X145778338Y-81722408D01*
X145774134Y-81721667D01*
X145567126Y-81703556D01*
X145562874Y-81703556D01*
X145355866Y-81721667D01*
X145351662Y-81722408D01*
X145150955Y-81776188D01*
X145146950Y-81777646D01*
X144958621Y-81865465D01*
X144954934Y-81867594D01*
X144914026Y-81896238D01*
X144910016Y-81902532D01*
X117819631Y-81902532D01*
X117819922Y-81901830D01*
X117818273Y-81897848D01*
X117775066Y-81867594D01*
X117771379Y-81865465D01*
X117583050Y-81777646D01*
X117579045Y-81776188D01*
X117378338Y-81722408D01*
X117374134Y-81721667D01*
X117167126Y-81703556D01*
X117162874Y-81703556D01*
X116955866Y-81721667D01*
X116951662Y-81722408D01*
X116750955Y-81776188D01*
X116746950Y-81777646D01*
X116558621Y-81865465D01*
X116554934Y-81867594D01*
X116514026Y-81896238D01*
X116510016Y-81902532D01*
X100100500Y-81902532D01*
X100100500Y-49639748D01*
X107319500Y-49639748D01*
X107331133Y-49698231D01*
X107375448Y-49764552D01*
X107441769Y-49808867D01*
X107500252Y-49820500D01*
X109239748Y-49820500D01*
X109298231Y-49808867D01*
X109364552Y-49764552D01*
X109408867Y-49698231D01*
X109420500Y-49639748D01*
X109420500Y-48755262D01*
X109854520Y-48755262D01*
X109854720Y-48757644D01*
X109854720Y-48757648D01*
X109858346Y-48800828D01*
X109871759Y-48960553D01*
X109928544Y-49158586D01*
X110022712Y-49341818D01*
X110024198Y-49343693D01*
X110024200Y-49343696D01*
X110054978Y-49382528D01*
X110150677Y-49503270D01*
X110307564Y-49636791D01*
X110487398Y-49737297D01*
X110510662Y-49744856D01*
X110681047Y-49800218D01*
X110681051Y-49800219D01*
X110683329Y-49800959D01*
X110887894Y-49825351D01*
X111093300Y-49809546D01*
X111291725Y-49754145D01*
X111293854Y-49753070D01*
X111293858Y-49753068D01*
X111380728Y-49709186D01*
X111475610Y-49661258D01*
X111637951Y-49534424D01*
X111663500Y-49504825D01*
X111770993Y-49380293D01*
X111770997Y-49380288D01*
X111772564Y-49378472D01*
X111874323Y-49199344D01*
X111887882Y-49158586D01*
X111930552Y-49030313D01*
X111939351Y-49003863D01*
X111965171Y-48799474D01*
X111965583Y-48770000D01*
X111964138Y-48755262D01*
X112394520Y-48755262D01*
X112394720Y-48757644D01*
X112394720Y-48757648D01*
X112398346Y-48800828D01*
X112411759Y-48960553D01*
X112468544Y-49158586D01*
X112562712Y-49341818D01*
X112564198Y-49343693D01*
X112564200Y-49343696D01*
X112594978Y-49382528D01*
X112690677Y-49503270D01*
X112847564Y-49636791D01*
X113027398Y-49737297D01*
X113050662Y-49744856D01*
X113221047Y-49800218D01*
X113221051Y-49800219D01*
X113223329Y-49800959D01*
X113427894Y-49825351D01*
X113633300Y-49809546D01*
X113831725Y-49754145D01*
X113833854Y-49753070D01*
X113833858Y-49753068D01*
X113920728Y-49709186D01*
X114015610Y-49661258D01*
X114177951Y-49534424D01*
X114203500Y-49504825D01*
X114310993Y-49380293D01*
X114310997Y-49380288D01*
X114312564Y-49378472D01*
X114414323Y-49199344D01*
X114427882Y-49158586D01*
X114470552Y-49030313D01*
X114479351Y-49003863D01*
X114505171Y-48799474D01*
X114505583Y-48770000D01*
X114504138Y-48755262D01*
X114934520Y-48755262D01*
X114934720Y-48757644D01*
X114934720Y-48757648D01*
X114938346Y-48800828D01*
X114951759Y-48960553D01*
X115008544Y-49158586D01*
X115102712Y-49341818D01*
X115104198Y-49343693D01*
X115104200Y-49343696D01*
X115134978Y-49382528D01*
X115230677Y-49503270D01*
X115387564Y-49636791D01*
X115567398Y-49737297D01*
X115615937Y-49753068D01*
X115655642Y-49765969D01*
X115684159Y-49790325D01*
X115689500Y-49812571D01*
X115689500Y-52234374D01*
X115688999Y-52241195D01*
X115687575Y-52245342D01*
X115687745Y-52249858D01*
X115689466Y-52295720D01*
X115689500Y-52297558D01*
X115689500Y-52317948D01*
X115689914Y-52320169D01*
X115690049Y-52321638D01*
X115690637Y-52326926D01*
X115691774Y-52357208D01*
X115693561Y-52361367D01*
X115693561Y-52361368D01*
X115698513Y-52372894D01*
X115701664Y-52383264D01*
X115704791Y-52400053D01*
X115707163Y-52403902D01*
X115707165Y-52403906D01*
X115720691Y-52425849D01*
X115724000Y-52432217D01*
X115735964Y-52460063D01*
X115739978Y-52464949D01*
X115748476Y-52473447D01*
X115755540Y-52482383D01*
X115761157Y-52491496D01*
X115761159Y-52491498D01*
X115763532Y-52495348D01*
X115767134Y-52498087D01*
X115767135Y-52498088D01*
X115789460Y-52515064D01*
X115794449Y-52519420D01*
X131385148Y-68110119D01*
X131399500Y-68144767D01*
X131399500Y-75993176D01*
X131385148Y-76027824D01*
X131372974Y-76036718D01*
X131331679Y-76058032D01*
X131329459Y-76059969D01*
X131329457Y-76059970D01*
X131327223Y-76061919D01*
X131213034Y-76161533D01*
X131211336Y-76163948D01*
X131211335Y-76163950D01*
X131207720Y-76169094D01*
X131122501Y-76290348D01*
X131121430Y-76293096D01*
X131121428Y-76293099D01*
X131066381Y-76434289D01*
X131065309Y-76437039D01*
X131044758Y-76593138D01*
X131062035Y-76749633D01*
X131116143Y-76897490D01*
X131203958Y-77028172D01*
X131320410Y-77134135D01*
X131323003Y-77135543D01*
X131323006Y-77135545D01*
X131431609Y-77194512D01*
X131458776Y-77209262D01*
X131611069Y-77249215D01*
X131698616Y-77250590D01*
X131765544Y-77251642D01*
X131765547Y-77251642D01*
X131768495Y-77251688D01*
X131771372Y-77251029D01*
X131771373Y-77251029D01*
X131919083Y-77217199D01*
X131919085Y-77217198D01*
X131921968Y-77216538D01*
X131924609Y-77215210D01*
X131924611Y-77215209D01*
X131994438Y-77180089D01*
X132062625Y-77145795D01*
X132182348Y-77043542D01*
X132274224Y-76915683D01*
X132332950Y-76769598D01*
X132355134Y-76613723D01*
X132355278Y-76600000D01*
X132336363Y-76443694D01*
X132333849Y-76437039D01*
X132281755Y-76299177D01*
X132281754Y-76299176D01*
X132280710Y-76296412D01*
X132191531Y-76166657D01*
X132189326Y-76164692D01*
X132189323Y-76164689D01*
X132076186Y-76063888D01*
X132073976Y-76061919D01*
X132071363Y-76060536D01*
X132071361Y-76060534D01*
X132026571Y-76036819D01*
X132002666Y-76007923D01*
X132000500Y-75993515D01*
X132000500Y-68055626D01*
X132001001Y-68048805D01*
X132002425Y-68044658D01*
X132000534Y-67994280D01*
X132000500Y-67992442D01*
X132000500Y-67972052D01*
X132000086Y-67969831D01*
X131999951Y-67968362D01*
X131999363Y-67963074D01*
X131998396Y-67937317D01*
X131998396Y-67937316D01*
X131998226Y-67932792D01*
X131991487Y-67917106D01*
X131988336Y-67906736D01*
X131986037Y-67894392D01*
X131986037Y-67894391D01*
X131985209Y-67889947D01*
X131982837Y-67886098D01*
X131982835Y-67886094D01*
X131969309Y-67864151D01*
X131966000Y-67857783D01*
X131955399Y-67833109D01*
X131955398Y-67833108D01*
X131954036Y-67829937D01*
X131950022Y-67825051D01*
X131941524Y-67816553D01*
X131934460Y-67807617D01*
X131928843Y-67798504D01*
X131928841Y-67798502D01*
X131926468Y-67794652D01*
X131900540Y-67774936D01*
X131895551Y-67770580D01*
X116304852Y-52179881D01*
X116290500Y-52145233D01*
X116290500Y-49814016D01*
X116304852Y-49779368D01*
X116326322Y-49766821D01*
X116371725Y-49754145D01*
X116373854Y-49753070D01*
X116373858Y-49753068D01*
X116460728Y-49709186D01*
X116555610Y-49661258D01*
X116717951Y-49534424D01*
X116743500Y-49504825D01*
X116850993Y-49380293D01*
X116850997Y-49380288D01*
X116852564Y-49378472D01*
X116954323Y-49199344D01*
X116967882Y-49158586D01*
X117010552Y-49030313D01*
X117196533Y-49030313D01*
X117229259Y-49175528D01*
X117230457Y-49179351D01*
X117312958Y-49382528D01*
X117314766Y-49386107D01*
X117429339Y-49573072D01*
X117431710Y-49576312D01*
X117575289Y-49742064D01*
X117578140Y-49744856D01*
X117746873Y-49884942D01*
X117750147Y-49887234D01*
X117939482Y-49997872D01*
X117943093Y-49999602D01*
X118147950Y-50077829D01*
X118151807Y-50078950D01*
X118266447Y-50102273D01*
X118273772Y-50100850D01*
X118276000Y-50097547D01*
X118276000Y-50096885D01*
X118784000Y-50096885D01*
X118786855Y-50103777D01*
X118791445Y-50105678D01*
X118811315Y-50103133D01*
X118815243Y-50102298D01*
X119025276Y-50039284D01*
X119029007Y-50037822D01*
X119225931Y-49941350D01*
X119229372Y-49939299D01*
X119407900Y-49811957D01*
X119410957Y-49809374D01*
X119566293Y-49654578D01*
X119568884Y-49651534D01*
X119696853Y-49473445D01*
X119698909Y-49470025D01*
X119796074Y-49273427D01*
X119797549Y-49269701D01*
X119861297Y-49059882D01*
X119862142Y-49055974D01*
X119865079Y-49033663D01*
X119863148Y-49026458D01*
X119858891Y-49024000D01*
X118793747Y-49024000D01*
X118786855Y-49026855D01*
X118784000Y-49033747D01*
X118784000Y-50096885D01*
X118276000Y-50096885D01*
X118276000Y-49033747D01*
X118273145Y-49026855D01*
X118266253Y-49024000D01*
X117204857Y-49024000D01*
X117197965Y-49026855D01*
X117196533Y-49030313D01*
X117010552Y-49030313D01*
X117019351Y-49003863D01*
X117045171Y-48799474D01*
X117045583Y-48770000D01*
X117044138Y-48755262D01*
X120014520Y-48755262D01*
X120014720Y-48757644D01*
X120014720Y-48757648D01*
X120018346Y-48800828D01*
X120031759Y-48960553D01*
X120088544Y-49158586D01*
X120182712Y-49341818D01*
X120184198Y-49343693D01*
X120184200Y-49343696D01*
X120214978Y-49382528D01*
X120310677Y-49503270D01*
X120467564Y-49636791D01*
X120647398Y-49737297D01*
X120670662Y-49744856D01*
X120841047Y-49800218D01*
X120841051Y-49800219D01*
X120843329Y-49800959D01*
X121047894Y-49825351D01*
X121253300Y-49809546D01*
X121451725Y-49754145D01*
X121453854Y-49753070D01*
X121453858Y-49753068D01*
X121540728Y-49709186D01*
X121635610Y-49661258D01*
X121797951Y-49534424D01*
X121823500Y-49504825D01*
X121930993Y-49380293D01*
X121930997Y-49380288D01*
X121932564Y-49378472D01*
X122034323Y-49199344D01*
X122047882Y-49158586D01*
X122090552Y-49030313D01*
X122099351Y-49003863D01*
X122125171Y-48799474D01*
X122125583Y-48770000D01*
X122124138Y-48755262D01*
X122554520Y-48755262D01*
X122554720Y-48757644D01*
X122554720Y-48757648D01*
X122558346Y-48800828D01*
X122571759Y-48960553D01*
X122628544Y-49158586D01*
X122722712Y-49341818D01*
X122724198Y-49343693D01*
X122724200Y-49343696D01*
X122754978Y-49382528D01*
X122850677Y-49503270D01*
X123007564Y-49636791D01*
X123187398Y-49737297D01*
X123210662Y-49744856D01*
X123381047Y-49800218D01*
X123381051Y-49800219D01*
X123383329Y-49800959D01*
X123587894Y-49825351D01*
X123793300Y-49809546D01*
X123991725Y-49754145D01*
X123993854Y-49753070D01*
X123993858Y-49753068D01*
X124080728Y-49709186D01*
X124175610Y-49661258D01*
X124337951Y-49534424D01*
X124363500Y-49504825D01*
X124470993Y-49380293D01*
X124470997Y-49380288D01*
X124472564Y-49378472D01*
X124574323Y-49199344D01*
X124587882Y-49158586D01*
X124630552Y-49030313D01*
X124639351Y-49003863D01*
X124665171Y-48799474D01*
X124665583Y-48770000D01*
X124664138Y-48755262D01*
X125094520Y-48755262D01*
X125094720Y-48757644D01*
X125094720Y-48757648D01*
X125098346Y-48800828D01*
X125111759Y-48960553D01*
X125168544Y-49158586D01*
X125262712Y-49341818D01*
X125264198Y-49343693D01*
X125264200Y-49343696D01*
X125294978Y-49382528D01*
X125390677Y-49503270D01*
X125547564Y-49636791D01*
X125727398Y-49737297D01*
X125750662Y-49744856D01*
X125921047Y-49800218D01*
X125921051Y-49800219D01*
X125923329Y-49800959D01*
X126127894Y-49825351D01*
X126333300Y-49809546D01*
X126531725Y-49754145D01*
X126533854Y-49753070D01*
X126533858Y-49753068D01*
X126620728Y-49709186D01*
X126715610Y-49661258D01*
X126877951Y-49534424D01*
X126903500Y-49504825D01*
X127010993Y-49380293D01*
X127010997Y-49380288D01*
X127012564Y-49378472D01*
X127114323Y-49199344D01*
X127127882Y-49158586D01*
X127170552Y-49030313D01*
X127179351Y-49003863D01*
X127205171Y-48799474D01*
X127205583Y-48770000D01*
X127204138Y-48755262D01*
X127634520Y-48755262D01*
X127634720Y-48757644D01*
X127634720Y-48757648D01*
X127638346Y-48800828D01*
X127651759Y-48960553D01*
X127708544Y-49158586D01*
X127802712Y-49341818D01*
X127804198Y-49343693D01*
X127804200Y-49343696D01*
X127834978Y-49382528D01*
X127930677Y-49503270D01*
X128087564Y-49636791D01*
X128267398Y-49737297D01*
X128290662Y-49744856D01*
X128461047Y-49800218D01*
X128461051Y-49800219D01*
X128463329Y-49800959D01*
X128667894Y-49825351D01*
X128873300Y-49809546D01*
X129071725Y-49754145D01*
X129073854Y-49753070D01*
X129073858Y-49753068D01*
X129160728Y-49709186D01*
X129255610Y-49661258D01*
X129417951Y-49534424D01*
X129443500Y-49504825D01*
X129550993Y-49380293D01*
X129550997Y-49380288D01*
X129552564Y-49378472D01*
X129654323Y-49199344D01*
X129667882Y-49158586D01*
X129710552Y-49030313D01*
X129719351Y-49003863D01*
X129745171Y-48799474D01*
X129745583Y-48770000D01*
X129744138Y-48755262D01*
X130174520Y-48755262D01*
X130174720Y-48757644D01*
X130174720Y-48757648D01*
X130178346Y-48800828D01*
X130191759Y-48960553D01*
X130248544Y-49158586D01*
X130342712Y-49341818D01*
X130344198Y-49343693D01*
X130344200Y-49343696D01*
X130374978Y-49382528D01*
X130470677Y-49503270D01*
X130627564Y-49636791D01*
X130807398Y-49737297D01*
X130830662Y-49744856D01*
X131001047Y-49800218D01*
X131001051Y-49800219D01*
X131003329Y-49800959D01*
X131207894Y-49825351D01*
X131413300Y-49809546D01*
X131611725Y-49754145D01*
X131613854Y-49753070D01*
X131613858Y-49753068D01*
X131700728Y-49709186D01*
X131795610Y-49661258D01*
X131957951Y-49534424D01*
X131983500Y-49504825D01*
X132090993Y-49380293D01*
X132090997Y-49380288D01*
X132092564Y-49378472D01*
X132194323Y-49199344D01*
X132207882Y-49158586D01*
X132250552Y-49030313D01*
X132259351Y-49003863D01*
X132285171Y-48799474D01*
X132285583Y-48770000D01*
X132284138Y-48755262D01*
X132714520Y-48755262D01*
X132714720Y-48757644D01*
X132714720Y-48757648D01*
X132718346Y-48800828D01*
X132731759Y-48960553D01*
X132788544Y-49158586D01*
X132882712Y-49341818D01*
X132884198Y-49343693D01*
X132884200Y-49343696D01*
X132914978Y-49382528D01*
X133010677Y-49503270D01*
X133167564Y-49636791D01*
X133347398Y-49737297D01*
X133370662Y-49744856D01*
X133541047Y-49800218D01*
X133541051Y-49800219D01*
X133543329Y-49800959D01*
X133747894Y-49825351D01*
X133953300Y-49809546D01*
X134151725Y-49754145D01*
X134153854Y-49753070D01*
X134153858Y-49753068D01*
X134240728Y-49709186D01*
X134335610Y-49661258D01*
X134497951Y-49534424D01*
X134523500Y-49504825D01*
X134630993Y-49380293D01*
X134630997Y-49380288D01*
X134632564Y-49378472D01*
X134734323Y-49199344D01*
X134747882Y-49158586D01*
X134790552Y-49030313D01*
X134799351Y-49003863D01*
X134825171Y-48799474D01*
X134825583Y-48770000D01*
X134824138Y-48755262D01*
X135254520Y-48755262D01*
X135254720Y-48757644D01*
X135254720Y-48757648D01*
X135258346Y-48800828D01*
X135271759Y-48960553D01*
X135328544Y-49158586D01*
X135422712Y-49341818D01*
X135424198Y-49343693D01*
X135424200Y-49343696D01*
X135454978Y-49382528D01*
X135550677Y-49503270D01*
X135707564Y-49636791D01*
X135887398Y-49737297D01*
X135910662Y-49744856D01*
X136081047Y-49800218D01*
X136081051Y-49800219D01*
X136083329Y-49800959D01*
X136287894Y-49825351D01*
X136493300Y-49809546D01*
X136691725Y-49754145D01*
X136693854Y-49753070D01*
X136693858Y-49753068D01*
X136780728Y-49709186D01*
X136875610Y-49661258D01*
X137037951Y-49534424D01*
X137063500Y-49504825D01*
X137170993Y-49380293D01*
X137170997Y-49380288D01*
X137172564Y-49378472D01*
X137274323Y-49199344D01*
X137287882Y-49158586D01*
X137330552Y-49030313D01*
X137516533Y-49030313D01*
X137549259Y-49175528D01*
X137550457Y-49179351D01*
X137632958Y-49382528D01*
X137634766Y-49386107D01*
X137749339Y-49573072D01*
X137751710Y-49576312D01*
X137895289Y-49742064D01*
X137898140Y-49744856D01*
X138066873Y-49884942D01*
X138070147Y-49887234D01*
X138259482Y-49997872D01*
X138263093Y-49999602D01*
X138467950Y-50077829D01*
X138471807Y-50078950D01*
X138586447Y-50102273D01*
X138593772Y-50100850D01*
X138596000Y-50097547D01*
X138596000Y-50096885D01*
X139104000Y-50096885D01*
X139106855Y-50103777D01*
X139111445Y-50105678D01*
X139131315Y-50103133D01*
X139135243Y-50102298D01*
X139345276Y-50039284D01*
X139349007Y-50037822D01*
X139545931Y-49941350D01*
X139549372Y-49939299D01*
X139727900Y-49811957D01*
X139730957Y-49809374D01*
X139886293Y-49654578D01*
X139888884Y-49651534D01*
X140016853Y-49473445D01*
X140018909Y-49470025D01*
X140116074Y-49273427D01*
X140117549Y-49269701D01*
X140181297Y-49059882D01*
X140182142Y-49055974D01*
X140185079Y-49033663D01*
X140183148Y-49026458D01*
X140178891Y-49024000D01*
X139113747Y-49024000D01*
X139106855Y-49026855D01*
X139104000Y-49033747D01*
X139104000Y-50096885D01*
X138596000Y-50096885D01*
X138596000Y-49033747D01*
X138593145Y-49026855D01*
X138586253Y-49024000D01*
X137524857Y-49024000D01*
X137517965Y-49026855D01*
X137516533Y-49030313D01*
X137330552Y-49030313D01*
X137339351Y-49003863D01*
X137365171Y-48799474D01*
X137365583Y-48770000D01*
X137364138Y-48755262D01*
X140334520Y-48755262D01*
X140334720Y-48757644D01*
X140334720Y-48757648D01*
X140338346Y-48800828D01*
X140351759Y-48960553D01*
X140408544Y-49158586D01*
X140502712Y-49341818D01*
X140504198Y-49343693D01*
X140504200Y-49343696D01*
X140534978Y-49382528D01*
X140630677Y-49503270D01*
X140787564Y-49636791D01*
X140967398Y-49737297D01*
X140990662Y-49744856D01*
X141161047Y-49800218D01*
X141161051Y-49800219D01*
X141163329Y-49800959D01*
X141367894Y-49825351D01*
X141573300Y-49809546D01*
X141771725Y-49754145D01*
X141773854Y-49753070D01*
X141773858Y-49753068D01*
X141860728Y-49709186D01*
X141955610Y-49661258D01*
X142117951Y-49534424D01*
X142143500Y-49504825D01*
X142250993Y-49380293D01*
X142250997Y-49380288D01*
X142252564Y-49378472D01*
X142354323Y-49199344D01*
X142367882Y-49158586D01*
X142410552Y-49030313D01*
X142419351Y-49003863D01*
X142445171Y-48799474D01*
X142445583Y-48770000D01*
X142444138Y-48755262D01*
X142874520Y-48755262D01*
X142874720Y-48757644D01*
X142874720Y-48757648D01*
X142878346Y-48800828D01*
X142891759Y-48960553D01*
X142948544Y-49158586D01*
X143042712Y-49341818D01*
X143044198Y-49343693D01*
X143044200Y-49343696D01*
X143074978Y-49382528D01*
X143170677Y-49503270D01*
X143327564Y-49636791D01*
X143507398Y-49737297D01*
X143555937Y-49753068D01*
X143595642Y-49765969D01*
X143624159Y-49790325D01*
X143629500Y-49812571D01*
X143629500Y-51274374D01*
X143628999Y-51281195D01*
X143627575Y-51285342D01*
X143627745Y-51289858D01*
X143629466Y-51335720D01*
X143629500Y-51337558D01*
X143629500Y-51357948D01*
X143629914Y-51360169D01*
X143630049Y-51361638D01*
X143630637Y-51366926D01*
X143631774Y-51397208D01*
X143633561Y-51401367D01*
X143633561Y-51401368D01*
X143638513Y-51412894D01*
X143641664Y-51423264D01*
X143644791Y-51440053D01*
X143647163Y-51443902D01*
X143647165Y-51443906D01*
X143660691Y-51465849D01*
X143664000Y-51472217D01*
X143675964Y-51500063D01*
X143679978Y-51504949D01*
X143688476Y-51513447D01*
X143695540Y-51522383D01*
X143701157Y-51531496D01*
X143701159Y-51531498D01*
X143703532Y-51535348D01*
X143707134Y-51538087D01*
X143707135Y-51538088D01*
X143729460Y-51555064D01*
X143734449Y-51559420D01*
X159585148Y-67410119D01*
X159599500Y-67444767D01*
X159599500Y-72793176D01*
X159585148Y-72827824D01*
X159572974Y-72836718D01*
X159531679Y-72858032D01*
X159529459Y-72859969D01*
X159529457Y-72859970D01*
X159527223Y-72861919D01*
X159413034Y-72961533D01*
X159411336Y-72963948D01*
X159411335Y-72963950D01*
X159407720Y-72969094D01*
X159322501Y-73090348D01*
X159321430Y-73093096D01*
X159321428Y-73093099D01*
X159266381Y-73234289D01*
X159265309Y-73237039D01*
X159244758Y-73393138D01*
X159262035Y-73549633D01*
X159316143Y-73697490D01*
X159403958Y-73828172D01*
X159520410Y-73934135D01*
X159523003Y-73935543D01*
X159523006Y-73935545D01*
X159631609Y-73994512D01*
X159658776Y-74009262D01*
X159811069Y-74049215D01*
X159898616Y-74050590D01*
X159965544Y-74051642D01*
X159965547Y-74051642D01*
X159968495Y-74051688D01*
X159971372Y-74051029D01*
X159971373Y-74051029D01*
X160119083Y-74017199D01*
X160119085Y-74017198D01*
X160121968Y-74016538D01*
X160124609Y-74015210D01*
X160124611Y-74015209D01*
X160194438Y-73980089D01*
X160262625Y-73945795D01*
X160382348Y-73843542D01*
X160474224Y-73715683D01*
X160532950Y-73569598D01*
X160555134Y-73413723D01*
X160555278Y-73400000D01*
X160536363Y-73243694D01*
X160533849Y-73237039D01*
X160481755Y-73099177D01*
X160481754Y-73099176D01*
X160480710Y-73096412D01*
X160391531Y-72966657D01*
X160389326Y-72964692D01*
X160389323Y-72964689D01*
X160276186Y-72863888D01*
X160273976Y-72861919D01*
X160271363Y-72860536D01*
X160271361Y-72860534D01*
X160226571Y-72836819D01*
X160202666Y-72807923D01*
X160200500Y-72793515D01*
X160200500Y-67355632D01*
X160201002Y-67348807D01*
X160202426Y-67344658D01*
X160200534Y-67294264D01*
X160200500Y-67292427D01*
X160200500Y-67272052D01*
X160200087Y-67269832D01*
X160199948Y-67268331D01*
X160199363Y-67263076D01*
X160198396Y-67237311D01*
X160198396Y-67237309D01*
X160198226Y-67232792D01*
X160196442Y-67228639D01*
X160196441Y-67228636D01*
X160191487Y-67217106D01*
X160188336Y-67206736D01*
X160186037Y-67194394D01*
X160185209Y-67189947D01*
X160169306Y-67164147D01*
X160165998Y-67157779D01*
X160155401Y-67133114D01*
X160155400Y-67133112D01*
X160154036Y-67129938D01*
X160150023Y-67125051D01*
X160141522Y-67116550D01*
X160134458Y-67107614D01*
X160128843Y-67098504D01*
X160128841Y-67098502D01*
X160126468Y-67094652D01*
X160100544Y-67074939D01*
X160095555Y-67070583D01*
X144244852Y-51219881D01*
X144230500Y-51185233D01*
X144230500Y-49814016D01*
X144244852Y-49779368D01*
X144266322Y-49766821D01*
X144311725Y-49754145D01*
X144313854Y-49753070D01*
X144313858Y-49753068D01*
X144400728Y-49709186D01*
X144495610Y-49661258D01*
X144657951Y-49534424D01*
X144683500Y-49504825D01*
X144790993Y-49380293D01*
X144790997Y-49380288D01*
X144792564Y-49378472D01*
X144894323Y-49199344D01*
X144907882Y-49158586D01*
X144950552Y-49030313D01*
X144959351Y-49003863D01*
X144985171Y-48799474D01*
X144985583Y-48770000D01*
X144984138Y-48755262D01*
X145414520Y-48755262D01*
X145414720Y-48757644D01*
X145414720Y-48757648D01*
X145418346Y-48800828D01*
X145431759Y-48960553D01*
X145488544Y-49158586D01*
X145582712Y-49341818D01*
X145584198Y-49343693D01*
X145584200Y-49343696D01*
X145614978Y-49382528D01*
X145710677Y-49503270D01*
X145867564Y-49636791D01*
X146047398Y-49737297D01*
X146070662Y-49744856D01*
X146241047Y-49800218D01*
X146241051Y-49800219D01*
X146243329Y-49800959D01*
X146447894Y-49825351D01*
X146653300Y-49809546D01*
X146851725Y-49754145D01*
X146853854Y-49753070D01*
X146853858Y-49753068D01*
X146940728Y-49709186D01*
X147035610Y-49661258D01*
X147197951Y-49534424D01*
X147223500Y-49504825D01*
X147330993Y-49380293D01*
X147330997Y-49380288D01*
X147332564Y-49378472D01*
X147434323Y-49199344D01*
X147447882Y-49158586D01*
X147490552Y-49030313D01*
X147499351Y-49003863D01*
X147525171Y-48799474D01*
X147525583Y-48770000D01*
X147524138Y-48755262D01*
X147954520Y-48755262D01*
X147954720Y-48757644D01*
X147954720Y-48757648D01*
X147958346Y-48800828D01*
X147971759Y-48960553D01*
X148028544Y-49158586D01*
X148122712Y-49341818D01*
X148124198Y-49343693D01*
X148124200Y-49343696D01*
X148154978Y-49382528D01*
X148250677Y-49503270D01*
X148407564Y-49636791D01*
X148587398Y-49737297D01*
X148610662Y-49744856D01*
X148781047Y-49800218D01*
X148781051Y-49800219D01*
X148783329Y-49800959D01*
X148987894Y-49825351D01*
X149193300Y-49809546D01*
X149391725Y-49754145D01*
X149393854Y-49753070D01*
X149393858Y-49753068D01*
X149480728Y-49709186D01*
X149575610Y-49661258D01*
X149737951Y-49534424D01*
X149763500Y-49504825D01*
X149870993Y-49380293D01*
X149870997Y-49380288D01*
X149872564Y-49378472D01*
X149974323Y-49199344D01*
X149987882Y-49158586D01*
X150030552Y-49030313D01*
X150039351Y-49003863D01*
X150065171Y-48799474D01*
X150065583Y-48770000D01*
X150064138Y-48755262D01*
X150494520Y-48755262D01*
X150494720Y-48757644D01*
X150494720Y-48757648D01*
X150498346Y-48800828D01*
X150511759Y-48960553D01*
X150568544Y-49158586D01*
X150662712Y-49341818D01*
X150664198Y-49343693D01*
X150664200Y-49343696D01*
X150694978Y-49382528D01*
X150790677Y-49503270D01*
X150947564Y-49636791D01*
X151127398Y-49737297D01*
X151150662Y-49744856D01*
X151321047Y-49800218D01*
X151321051Y-49800219D01*
X151323329Y-49800959D01*
X151527894Y-49825351D01*
X151733300Y-49809546D01*
X151931725Y-49754145D01*
X151933854Y-49753070D01*
X151933858Y-49753068D01*
X152020728Y-49709186D01*
X152115610Y-49661258D01*
X152277951Y-49534424D01*
X152303500Y-49504825D01*
X152410993Y-49380293D01*
X152410997Y-49380288D01*
X152412564Y-49378472D01*
X152514323Y-49199344D01*
X152527882Y-49158586D01*
X152570552Y-49030313D01*
X152579351Y-49003863D01*
X152605171Y-48799474D01*
X152605583Y-48770000D01*
X152604138Y-48755262D01*
X153034520Y-48755262D01*
X153034720Y-48757644D01*
X153034720Y-48757648D01*
X153038346Y-48800828D01*
X153051759Y-48960553D01*
X153108544Y-49158586D01*
X153202712Y-49341818D01*
X153204198Y-49343693D01*
X153204200Y-49343696D01*
X153234978Y-49382528D01*
X153330677Y-49503270D01*
X153487564Y-49636791D01*
X153667398Y-49737297D01*
X153690662Y-49744856D01*
X153861047Y-49800218D01*
X153861051Y-49800219D01*
X153863329Y-49800959D01*
X154067894Y-49825351D01*
X154273300Y-49809546D01*
X154471725Y-49754145D01*
X154473854Y-49753070D01*
X154473858Y-49753068D01*
X154560728Y-49709186D01*
X154655610Y-49661258D01*
X154817951Y-49534424D01*
X154843500Y-49504825D01*
X154950993Y-49380293D01*
X154950997Y-49380288D01*
X154952564Y-49378472D01*
X155054323Y-49199344D01*
X155067882Y-49158586D01*
X155110552Y-49030313D01*
X155296533Y-49030313D01*
X155329259Y-49175528D01*
X155330457Y-49179351D01*
X155412958Y-49382528D01*
X155414766Y-49386107D01*
X155529339Y-49573072D01*
X155531710Y-49576312D01*
X155675289Y-49742064D01*
X155678140Y-49744856D01*
X155846873Y-49884942D01*
X155850147Y-49887234D01*
X156039482Y-49997872D01*
X156043093Y-49999602D01*
X156247950Y-50077829D01*
X156251807Y-50078950D01*
X156366447Y-50102273D01*
X156373772Y-50100850D01*
X156376000Y-50097547D01*
X156376000Y-50096885D01*
X156884000Y-50096885D01*
X156886855Y-50103777D01*
X156891445Y-50105678D01*
X156911315Y-50103133D01*
X156915243Y-50102298D01*
X157125276Y-50039284D01*
X157129007Y-50037822D01*
X157325931Y-49941350D01*
X157329372Y-49939299D01*
X157507900Y-49811957D01*
X157510957Y-49809374D01*
X157666293Y-49654578D01*
X157668884Y-49651534D01*
X157796853Y-49473445D01*
X157798909Y-49470025D01*
X157896074Y-49273427D01*
X157897549Y-49269701D01*
X157961297Y-49059882D01*
X157962142Y-49055974D01*
X157965079Y-49033663D01*
X157963148Y-49026458D01*
X157958891Y-49024000D01*
X156893747Y-49024000D01*
X156886855Y-49026855D01*
X156884000Y-49033747D01*
X156884000Y-50096885D01*
X156376000Y-50096885D01*
X156376000Y-49033747D01*
X156373145Y-49026855D01*
X156366253Y-49024000D01*
X155304857Y-49024000D01*
X155297965Y-49026855D01*
X155296533Y-49030313D01*
X155110552Y-49030313D01*
X155119351Y-49003863D01*
X155145171Y-48799474D01*
X155145583Y-48770000D01*
X155125480Y-48564970D01*
X155120433Y-48548251D01*
X155108521Y-48508798D01*
X155293109Y-48508798D01*
X155294482Y-48513466D01*
X155299128Y-48516000D01*
X156366253Y-48516000D01*
X156373145Y-48513145D01*
X156376000Y-48506253D01*
X156884000Y-48506253D01*
X156886855Y-48513145D01*
X156893747Y-48516000D01*
X157956712Y-48516000D01*
X157963604Y-48513145D01*
X157964935Y-48509932D01*
X157920445Y-48332813D01*
X157919153Y-48329019D01*
X157831714Y-48127922D01*
X157829818Y-48124386D01*
X157710709Y-47940270D01*
X157708266Y-47937098D01*
X157560679Y-47774903D01*
X157557751Y-47772172D01*
X157385660Y-47636264D01*
X157382322Y-47634046D01*
X157237842Y-47554288D01*
X159945404Y-47554288D01*
X159945630Y-47556240D01*
X159945630Y-47556244D01*
X159966173Y-47733792D01*
X159974081Y-47802140D01*
X160042017Y-48042219D01*
X160042849Y-48044003D01*
X160042850Y-48044006D01*
X160146629Y-48266562D01*
X160147462Y-48268348D01*
X160148569Y-48269976D01*
X160148569Y-48269977D01*
X160286601Y-48473085D01*
X160286605Y-48473090D01*
X160287706Y-48474710D01*
X160289055Y-48476137D01*
X160289057Y-48476139D01*
X160387815Y-48580572D01*
X160459138Y-48655994D01*
X160460709Y-48657195D01*
X160460710Y-48657196D01*
X160648573Y-48800828D01*
X160657349Y-48807538D01*
X160877239Y-48925443D01*
X161113152Y-49006674D01*
X161359017Y-49049142D01*
X161360546Y-49049211D01*
X161360551Y-49049212D01*
X161388364Y-49050475D01*
X161388379Y-49050475D01*
X161388922Y-49050500D01*
X161562691Y-49050500D01*
X161563658Y-49050422D01*
X161563663Y-49050422D01*
X161746743Y-49035692D01*
X161746748Y-49035691D01*
X161748702Y-49035534D01*
X161750606Y-49035066D01*
X161750608Y-49035066D01*
X161989097Y-48976487D01*
X161989098Y-48976487D01*
X161991006Y-48976018D01*
X161992813Y-48975251D01*
X161992816Y-48975250D01*
X162218869Y-48879297D01*
X162218875Y-48879294D01*
X162220677Y-48878529D01*
X162431808Y-48745573D01*
X162618965Y-48580572D01*
X162707256Y-48473085D01*
X162776091Y-48389284D01*
X162776094Y-48389279D01*
X162777334Y-48387770D01*
X162788987Y-48367749D01*
X162901853Y-48173823D01*
X162902840Y-48172128D01*
X162992255Y-47939195D01*
X163035166Y-47733792D01*
X163042876Y-47696886D01*
X163042876Y-47696884D01*
X163043278Y-47694961D01*
X163054596Y-47445712D01*
X163053686Y-47437842D01*
X163026146Y-47199822D01*
X163025919Y-47197860D01*
X162957983Y-46957781D01*
X162945041Y-46930025D01*
X162853371Y-46733438D01*
X162853370Y-46733436D01*
X162852538Y-46731652D01*
X162814281Y-46675359D01*
X162713399Y-46526915D01*
X162713395Y-46526910D01*
X162712294Y-46525290D01*
X162703485Y-46515974D01*
X162542221Y-46345443D01*
X162542220Y-46345442D01*
X162540862Y-46344006D01*
X162428507Y-46258104D01*
X162344221Y-46193662D01*
X162344218Y-46193660D01*
X162342651Y-46192462D01*
X162122761Y-46074557D01*
X161886848Y-45993326D01*
X161640983Y-45950858D01*
X161639454Y-45950789D01*
X161639449Y-45950788D01*
X161611636Y-45949525D01*
X161611621Y-45949525D01*
X161611078Y-45949500D01*
X161437309Y-45949500D01*
X161436342Y-45949578D01*
X161436337Y-45949578D01*
X161253257Y-45964308D01*
X161253252Y-45964309D01*
X161251298Y-45964466D01*
X161249394Y-45964934D01*
X161249392Y-45964934D01*
X161010903Y-46023513D01*
X161008994Y-46023982D01*
X161007187Y-46024749D01*
X161007184Y-46024750D01*
X160781131Y-46120703D01*
X160781125Y-46120706D01*
X160779323Y-46121471D01*
X160568192Y-46254427D01*
X160381035Y-46419428D01*
X160379786Y-46420949D01*
X160223909Y-46610716D01*
X160223906Y-46610721D01*
X160222666Y-46612230D01*
X160097160Y-46827872D01*
X160007745Y-47060805D01*
X159956722Y-47305039D01*
X159945404Y-47554288D01*
X157237842Y-47554288D01*
X157190343Y-47528067D01*
X157186685Y-47526424D01*
X156979978Y-47453225D01*
X156976109Y-47452202D01*
X156893596Y-47437504D01*
X156886310Y-47439106D01*
X156884000Y-47442719D01*
X156884000Y-48506253D01*
X156376000Y-48506253D01*
X156376000Y-47444734D01*
X156373145Y-47437842D01*
X156368882Y-47436076D01*
X156316202Y-47444138D01*
X156312290Y-47445070D01*
X156103857Y-47513196D01*
X156100175Y-47514743D01*
X155905657Y-47616003D01*
X155902267Y-47618138D01*
X155726903Y-47749805D01*
X155723907Y-47752465D01*
X155572407Y-47911001D01*
X155569889Y-47914110D01*
X155446311Y-48095268D01*
X155444332Y-48098752D01*
X155352007Y-48297650D01*
X155350621Y-48301418D01*
X155293109Y-48508798D01*
X155108521Y-48508798D01*
X155072437Y-48389284D01*
X155065935Y-48367749D01*
X155013083Y-48268348D01*
X154970342Y-48187962D01*
X154970339Y-48187958D01*
X154969218Y-48185849D01*
X154839011Y-48026200D01*
X154680275Y-47894882D01*
X154499055Y-47796897D01*
X154302254Y-47735977D01*
X154299879Y-47735727D01*
X154299877Y-47735727D01*
X154099752Y-47714693D01*
X154099747Y-47714693D01*
X154097369Y-47714443D01*
X154094984Y-47714660D01*
X154094979Y-47714660D01*
X153994786Y-47723778D01*
X153892203Y-47733114D01*
X153759495Y-47772172D01*
X153696875Y-47790602D01*
X153696873Y-47790603D01*
X153694572Y-47791280D01*
X153512002Y-47886726D01*
X153430206Y-47952491D01*
X153353312Y-48014315D01*
X153353309Y-48014318D01*
X153351447Y-48015815D01*
X153349908Y-48017649D01*
X153349907Y-48017650D01*
X153329291Y-48042219D01*
X153219024Y-48173630D01*
X153217869Y-48175731D01*
X153131513Y-48332813D01*
X153119776Y-48354162D01*
X153119052Y-48356443D01*
X153119052Y-48356444D01*
X153109652Y-48386078D01*
X153057484Y-48550532D01*
X153034520Y-48755262D01*
X152604138Y-48755262D01*
X152585480Y-48564970D01*
X152580433Y-48548251D01*
X152532437Y-48389284D01*
X152525935Y-48367749D01*
X152473083Y-48268348D01*
X152430342Y-48187962D01*
X152430339Y-48187958D01*
X152429218Y-48185849D01*
X152299011Y-48026200D01*
X152140275Y-47894882D01*
X151959055Y-47796897D01*
X151762254Y-47735977D01*
X151759879Y-47735727D01*
X151759877Y-47735727D01*
X151559752Y-47714693D01*
X151559747Y-47714693D01*
X151557369Y-47714443D01*
X151554984Y-47714660D01*
X151554979Y-47714660D01*
X151454786Y-47723778D01*
X151352203Y-47733114D01*
X151219495Y-47772172D01*
X151156875Y-47790602D01*
X151156873Y-47790603D01*
X151154572Y-47791280D01*
X150972002Y-47886726D01*
X150890206Y-47952491D01*
X150813312Y-48014315D01*
X150813309Y-48014318D01*
X150811447Y-48015815D01*
X150809908Y-48017649D01*
X150809907Y-48017650D01*
X150789291Y-48042219D01*
X150679024Y-48173630D01*
X150677869Y-48175731D01*
X150591513Y-48332813D01*
X150579776Y-48354162D01*
X150579052Y-48356443D01*
X150579052Y-48356444D01*
X150569652Y-48386078D01*
X150517484Y-48550532D01*
X150494520Y-48755262D01*
X150064138Y-48755262D01*
X150045480Y-48564970D01*
X150040433Y-48548251D01*
X149992437Y-48389284D01*
X149985935Y-48367749D01*
X149933083Y-48268348D01*
X149890342Y-48187962D01*
X149890339Y-48187958D01*
X149889218Y-48185849D01*
X149759011Y-48026200D01*
X149600275Y-47894882D01*
X149419055Y-47796897D01*
X149222254Y-47735977D01*
X149219879Y-47735727D01*
X149219877Y-47735727D01*
X149019752Y-47714693D01*
X149019747Y-47714693D01*
X149017369Y-47714443D01*
X149014984Y-47714660D01*
X149014979Y-47714660D01*
X148914786Y-47723778D01*
X148812203Y-47733114D01*
X148679495Y-47772172D01*
X148616875Y-47790602D01*
X148616873Y-47790603D01*
X148614572Y-47791280D01*
X148432002Y-47886726D01*
X148350206Y-47952491D01*
X148273312Y-48014315D01*
X148273309Y-48014318D01*
X148271447Y-48015815D01*
X148269908Y-48017649D01*
X148269907Y-48017650D01*
X148249291Y-48042219D01*
X148139024Y-48173630D01*
X148137869Y-48175731D01*
X148051513Y-48332813D01*
X148039776Y-48354162D01*
X148039052Y-48356443D01*
X148039052Y-48356444D01*
X148029652Y-48386078D01*
X147977484Y-48550532D01*
X147954520Y-48755262D01*
X147524138Y-48755262D01*
X147505480Y-48564970D01*
X147500433Y-48548251D01*
X147452437Y-48389284D01*
X147445935Y-48367749D01*
X147393083Y-48268348D01*
X147350342Y-48187962D01*
X147350339Y-48187958D01*
X147349218Y-48185849D01*
X147219011Y-48026200D01*
X147060275Y-47894882D01*
X146879055Y-47796897D01*
X146682254Y-47735977D01*
X146679879Y-47735727D01*
X146679877Y-47735727D01*
X146479752Y-47714693D01*
X146479747Y-47714693D01*
X146477369Y-47714443D01*
X146474984Y-47714660D01*
X146474979Y-47714660D01*
X146374786Y-47723778D01*
X146272203Y-47733114D01*
X146139495Y-47772172D01*
X146076875Y-47790602D01*
X146076873Y-47790603D01*
X146074572Y-47791280D01*
X145892002Y-47886726D01*
X145810206Y-47952491D01*
X145733312Y-48014315D01*
X145733309Y-48014318D01*
X145731447Y-48015815D01*
X145729908Y-48017649D01*
X145729907Y-48017650D01*
X145709291Y-48042219D01*
X145599024Y-48173630D01*
X145597869Y-48175731D01*
X145511513Y-48332813D01*
X145499776Y-48354162D01*
X145499052Y-48356443D01*
X145499052Y-48356444D01*
X145489652Y-48386078D01*
X145437484Y-48550532D01*
X145414520Y-48755262D01*
X144984138Y-48755262D01*
X144965480Y-48564970D01*
X144960433Y-48548251D01*
X144912437Y-48389284D01*
X144905935Y-48367749D01*
X144853083Y-48268348D01*
X144810342Y-48187962D01*
X144810339Y-48187958D01*
X144809218Y-48185849D01*
X144679011Y-48026200D01*
X144520275Y-47894882D01*
X144339055Y-47796897D01*
X144142254Y-47735977D01*
X144139879Y-47735727D01*
X144139877Y-47735727D01*
X143939752Y-47714693D01*
X143939747Y-47714693D01*
X143937369Y-47714443D01*
X143934984Y-47714660D01*
X143934979Y-47714660D01*
X143834786Y-47723778D01*
X143732203Y-47733114D01*
X143599495Y-47772172D01*
X143536875Y-47790602D01*
X143536873Y-47790603D01*
X143534572Y-47791280D01*
X143352002Y-47886726D01*
X143270206Y-47952491D01*
X143193312Y-48014315D01*
X143193309Y-48014318D01*
X143191447Y-48015815D01*
X143189908Y-48017649D01*
X143189907Y-48017650D01*
X143169291Y-48042219D01*
X143059024Y-48173630D01*
X143057869Y-48175731D01*
X142971513Y-48332813D01*
X142959776Y-48354162D01*
X142959052Y-48356443D01*
X142959052Y-48356444D01*
X142949652Y-48386078D01*
X142897484Y-48550532D01*
X142874520Y-48755262D01*
X142444138Y-48755262D01*
X142425480Y-48564970D01*
X142420433Y-48548251D01*
X142372437Y-48389284D01*
X142365935Y-48367749D01*
X142313083Y-48268348D01*
X142270342Y-48187962D01*
X142270339Y-48187958D01*
X142269218Y-48185849D01*
X142139011Y-48026200D01*
X141980275Y-47894882D01*
X141799055Y-47796897D01*
X141602254Y-47735977D01*
X141599879Y-47735727D01*
X141599877Y-47735727D01*
X141399752Y-47714693D01*
X141399747Y-47714693D01*
X141397369Y-47714443D01*
X141394984Y-47714660D01*
X141394979Y-47714660D01*
X141294786Y-47723778D01*
X141192203Y-47733114D01*
X141059495Y-47772172D01*
X140996875Y-47790602D01*
X140996873Y-47790603D01*
X140994572Y-47791280D01*
X140812002Y-47886726D01*
X140730206Y-47952491D01*
X140653312Y-48014315D01*
X140653309Y-48014318D01*
X140651447Y-48015815D01*
X140649908Y-48017649D01*
X140649907Y-48017650D01*
X140629291Y-48042219D01*
X140519024Y-48173630D01*
X140517869Y-48175731D01*
X140431513Y-48332813D01*
X140419776Y-48354162D01*
X140419052Y-48356443D01*
X140419052Y-48356444D01*
X140409652Y-48386078D01*
X140357484Y-48550532D01*
X140334520Y-48755262D01*
X137364138Y-48755262D01*
X137345480Y-48564970D01*
X137340433Y-48548251D01*
X137328521Y-48508798D01*
X137513109Y-48508798D01*
X137514482Y-48513466D01*
X137519128Y-48516000D01*
X138586253Y-48516000D01*
X138593145Y-48513145D01*
X138596000Y-48506253D01*
X139104000Y-48506253D01*
X139106855Y-48513145D01*
X139113747Y-48516000D01*
X140176712Y-48516000D01*
X140183604Y-48513145D01*
X140184935Y-48509932D01*
X140140445Y-48332813D01*
X140139153Y-48329019D01*
X140051714Y-48127922D01*
X140049818Y-48124386D01*
X139930709Y-47940270D01*
X139928266Y-47937098D01*
X139780679Y-47774903D01*
X139777751Y-47772172D01*
X139605660Y-47636264D01*
X139602322Y-47634046D01*
X139410343Y-47528067D01*
X139406685Y-47526424D01*
X139199978Y-47453225D01*
X139196109Y-47452202D01*
X139113596Y-47437504D01*
X139106310Y-47439106D01*
X139104000Y-47442719D01*
X139104000Y-48506253D01*
X138596000Y-48506253D01*
X138596000Y-47444734D01*
X138593145Y-47437842D01*
X138588882Y-47436076D01*
X138536202Y-47444138D01*
X138532290Y-47445070D01*
X138323857Y-47513196D01*
X138320175Y-47514743D01*
X138125657Y-47616003D01*
X138122267Y-47618138D01*
X137946903Y-47749805D01*
X137943907Y-47752465D01*
X137792407Y-47911001D01*
X137789889Y-47914110D01*
X137666311Y-48095268D01*
X137664332Y-48098752D01*
X137572007Y-48297650D01*
X137570621Y-48301418D01*
X137513109Y-48508798D01*
X137328521Y-48508798D01*
X137292437Y-48389284D01*
X137285935Y-48367749D01*
X137233083Y-48268348D01*
X137190342Y-48187962D01*
X137190339Y-48187958D01*
X137189218Y-48185849D01*
X137059011Y-48026200D01*
X136900275Y-47894882D01*
X136719055Y-47796897D01*
X136522254Y-47735977D01*
X136519879Y-47735727D01*
X136519877Y-47735727D01*
X136319752Y-47714693D01*
X136319747Y-47714693D01*
X136317369Y-47714443D01*
X136314984Y-47714660D01*
X136314979Y-47714660D01*
X136214786Y-47723778D01*
X136112203Y-47733114D01*
X135979495Y-47772172D01*
X135916875Y-47790602D01*
X135916873Y-47790603D01*
X135914572Y-47791280D01*
X135732002Y-47886726D01*
X135650206Y-47952491D01*
X135573312Y-48014315D01*
X135573309Y-48014318D01*
X135571447Y-48015815D01*
X135569908Y-48017649D01*
X135569907Y-48017650D01*
X135549291Y-48042219D01*
X135439024Y-48173630D01*
X135437869Y-48175731D01*
X135351513Y-48332813D01*
X135339776Y-48354162D01*
X135339052Y-48356443D01*
X135339052Y-48356444D01*
X135329652Y-48386078D01*
X135277484Y-48550532D01*
X135254520Y-48755262D01*
X134824138Y-48755262D01*
X134805480Y-48564970D01*
X134800433Y-48548251D01*
X134752437Y-48389284D01*
X134745935Y-48367749D01*
X134693083Y-48268348D01*
X134650342Y-48187962D01*
X134650339Y-48187958D01*
X134649218Y-48185849D01*
X134519011Y-48026200D01*
X134360275Y-47894882D01*
X134179055Y-47796897D01*
X133982254Y-47735977D01*
X133979879Y-47735727D01*
X133979877Y-47735727D01*
X133779752Y-47714693D01*
X133779747Y-47714693D01*
X133777369Y-47714443D01*
X133774984Y-47714660D01*
X133774979Y-47714660D01*
X133674786Y-47723778D01*
X133572203Y-47733114D01*
X133439495Y-47772172D01*
X133376875Y-47790602D01*
X133376873Y-47790603D01*
X133374572Y-47791280D01*
X133192002Y-47886726D01*
X133110206Y-47952491D01*
X133033312Y-48014315D01*
X133033309Y-48014318D01*
X133031447Y-48015815D01*
X133029908Y-48017649D01*
X133029907Y-48017650D01*
X133009291Y-48042219D01*
X132899024Y-48173630D01*
X132897869Y-48175731D01*
X132811513Y-48332813D01*
X132799776Y-48354162D01*
X132799052Y-48356443D01*
X132799052Y-48356444D01*
X132789652Y-48386078D01*
X132737484Y-48550532D01*
X132714520Y-48755262D01*
X132284138Y-48755262D01*
X132265480Y-48564970D01*
X132260433Y-48548251D01*
X132212437Y-48389284D01*
X132205935Y-48367749D01*
X132153083Y-48268348D01*
X132110342Y-48187962D01*
X132110339Y-48187958D01*
X132109218Y-48185849D01*
X131979011Y-48026200D01*
X131820275Y-47894882D01*
X131639055Y-47796897D01*
X131442254Y-47735977D01*
X131439879Y-47735727D01*
X131439877Y-47735727D01*
X131239752Y-47714693D01*
X131239747Y-47714693D01*
X131237369Y-47714443D01*
X131234984Y-47714660D01*
X131234979Y-47714660D01*
X131134786Y-47723778D01*
X131032203Y-47733114D01*
X130899495Y-47772172D01*
X130836875Y-47790602D01*
X130836873Y-47790603D01*
X130834572Y-47791280D01*
X130652002Y-47886726D01*
X130570206Y-47952491D01*
X130493312Y-48014315D01*
X130493309Y-48014318D01*
X130491447Y-48015815D01*
X130489908Y-48017649D01*
X130489907Y-48017650D01*
X130469291Y-48042219D01*
X130359024Y-48173630D01*
X130357869Y-48175731D01*
X130271513Y-48332813D01*
X130259776Y-48354162D01*
X130259052Y-48356443D01*
X130259052Y-48356444D01*
X130249652Y-48386078D01*
X130197484Y-48550532D01*
X130174520Y-48755262D01*
X129744138Y-48755262D01*
X129725480Y-48564970D01*
X129720433Y-48548251D01*
X129672437Y-48389284D01*
X129665935Y-48367749D01*
X129613083Y-48268348D01*
X129570342Y-48187962D01*
X129570339Y-48187958D01*
X129569218Y-48185849D01*
X129439011Y-48026200D01*
X129280275Y-47894882D01*
X129099055Y-47796897D01*
X128902254Y-47735977D01*
X128899879Y-47735727D01*
X128899877Y-47735727D01*
X128699752Y-47714693D01*
X128699747Y-47714693D01*
X128697369Y-47714443D01*
X128694984Y-47714660D01*
X128694979Y-47714660D01*
X128594786Y-47723778D01*
X128492203Y-47733114D01*
X128359495Y-47772172D01*
X128296875Y-47790602D01*
X128296873Y-47790603D01*
X128294572Y-47791280D01*
X128112002Y-47886726D01*
X128030206Y-47952491D01*
X127953312Y-48014315D01*
X127953309Y-48014318D01*
X127951447Y-48015815D01*
X127949908Y-48017649D01*
X127949907Y-48017650D01*
X127929291Y-48042219D01*
X127819024Y-48173630D01*
X127817869Y-48175731D01*
X127731513Y-48332813D01*
X127719776Y-48354162D01*
X127719052Y-48356443D01*
X127719052Y-48356444D01*
X127709652Y-48386078D01*
X127657484Y-48550532D01*
X127634520Y-48755262D01*
X127204138Y-48755262D01*
X127185480Y-48564970D01*
X127180433Y-48548251D01*
X127132437Y-48389284D01*
X127125935Y-48367749D01*
X127073083Y-48268348D01*
X127030342Y-48187962D01*
X127030339Y-48187958D01*
X127029218Y-48185849D01*
X126899011Y-48026200D01*
X126740275Y-47894882D01*
X126559055Y-47796897D01*
X126362254Y-47735977D01*
X126359879Y-47735727D01*
X126359877Y-47735727D01*
X126159752Y-47714693D01*
X126159747Y-47714693D01*
X126157369Y-47714443D01*
X126154984Y-47714660D01*
X126154979Y-47714660D01*
X126054786Y-47723778D01*
X125952203Y-47733114D01*
X125819495Y-47772172D01*
X125756875Y-47790602D01*
X125756873Y-47790603D01*
X125754572Y-47791280D01*
X125572002Y-47886726D01*
X125490206Y-47952491D01*
X125413312Y-48014315D01*
X125413309Y-48014318D01*
X125411447Y-48015815D01*
X125409908Y-48017649D01*
X125409907Y-48017650D01*
X125389291Y-48042219D01*
X125279024Y-48173630D01*
X125277869Y-48175731D01*
X125191513Y-48332813D01*
X125179776Y-48354162D01*
X125179052Y-48356443D01*
X125179052Y-48356444D01*
X125169652Y-48386078D01*
X125117484Y-48550532D01*
X125094520Y-48755262D01*
X124664138Y-48755262D01*
X124645480Y-48564970D01*
X124640433Y-48548251D01*
X124592437Y-48389284D01*
X124585935Y-48367749D01*
X124533083Y-48268348D01*
X124490342Y-48187962D01*
X124490339Y-48187958D01*
X124489218Y-48185849D01*
X124359011Y-48026200D01*
X124200275Y-47894882D01*
X124019055Y-47796897D01*
X123822254Y-47735977D01*
X123819879Y-47735727D01*
X123819877Y-47735727D01*
X123619752Y-47714693D01*
X123619747Y-47714693D01*
X123617369Y-47714443D01*
X123614984Y-47714660D01*
X123614979Y-47714660D01*
X123514786Y-47723778D01*
X123412203Y-47733114D01*
X123279495Y-47772172D01*
X123216875Y-47790602D01*
X123216873Y-47790603D01*
X123214572Y-47791280D01*
X123032002Y-47886726D01*
X122950206Y-47952491D01*
X122873312Y-48014315D01*
X122873309Y-48014318D01*
X122871447Y-48015815D01*
X122869908Y-48017649D01*
X122869907Y-48017650D01*
X122849291Y-48042219D01*
X122739024Y-48173630D01*
X122737869Y-48175731D01*
X122651513Y-48332813D01*
X122639776Y-48354162D01*
X122639052Y-48356443D01*
X122639052Y-48356444D01*
X122629652Y-48386078D01*
X122577484Y-48550532D01*
X122554520Y-48755262D01*
X122124138Y-48755262D01*
X122105480Y-48564970D01*
X122100433Y-48548251D01*
X122052437Y-48389284D01*
X122045935Y-48367749D01*
X121993083Y-48268348D01*
X121950342Y-48187962D01*
X121950339Y-48187958D01*
X121949218Y-48185849D01*
X121819011Y-48026200D01*
X121660275Y-47894882D01*
X121479055Y-47796897D01*
X121282254Y-47735977D01*
X121279879Y-47735727D01*
X121279877Y-47735727D01*
X121079752Y-47714693D01*
X121079747Y-47714693D01*
X121077369Y-47714443D01*
X121074984Y-47714660D01*
X121074979Y-47714660D01*
X120974786Y-47723778D01*
X120872203Y-47733114D01*
X120739495Y-47772172D01*
X120676875Y-47790602D01*
X120676873Y-47790603D01*
X120674572Y-47791280D01*
X120492002Y-47886726D01*
X120410206Y-47952491D01*
X120333312Y-48014315D01*
X120333309Y-48014318D01*
X120331447Y-48015815D01*
X120329908Y-48017649D01*
X120329907Y-48017650D01*
X120309291Y-48042219D01*
X120199024Y-48173630D01*
X120197869Y-48175731D01*
X120111513Y-48332813D01*
X120099776Y-48354162D01*
X120099052Y-48356443D01*
X120099052Y-48356444D01*
X120089652Y-48386078D01*
X120037484Y-48550532D01*
X120014520Y-48755262D01*
X117044138Y-48755262D01*
X117025480Y-48564970D01*
X117020433Y-48548251D01*
X117008521Y-48508798D01*
X117193109Y-48508798D01*
X117194482Y-48513466D01*
X117199128Y-48516000D01*
X118266253Y-48516000D01*
X118273145Y-48513145D01*
X118276000Y-48506253D01*
X118784000Y-48506253D01*
X118786855Y-48513145D01*
X118793747Y-48516000D01*
X119856712Y-48516000D01*
X119863604Y-48513145D01*
X119864935Y-48509932D01*
X119820445Y-48332813D01*
X119819153Y-48329019D01*
X119731714Y-48127922D01*
X119729818Y-48124386D01*
X119610709Y-47940270D01*
X119608266Y-47937098D01*
X119460679Y-47774903D01*
X119457751Y-47772172D01*
X119285660Y-47636264D01*
X119282322Y-47634046D01*
X119090343Y-47528067D01*
X119086685Y-47526424D01*
X118879978Y-47453225D01*
X118876109Y-47452202D01*
X118793596Y-47437504D01*
X118786310Y-47439106D01*
X118784000Y-47442719D01*
X118784000Y-48506253D01*
X118276000Y-48506253D01*
X118276000Y-47444734D01*
X118273145Y-47437842D01*
X118268882Y-47436076D01*
X118216202Y-47444138D01*
X118212290Y-47445070D01*
X118003857Y-47513196D01*
X118000175Y-47514743D01*
X117805657Y-47616003D01*
X117802267Y-47618138D01*
X117626903Y-47749805D01*
X117623907Y-47752465D01*
X117472407Y-47911001D01*
X117469889Y-47914110D01*
X117346311Y-48095268D01*
X117344332Y-48098752D01*
X117252007Y-48297650D01*
X117250621Y-48301418D01*
X117193109Y-48508798D01*
X117008521Y-48508798D01*
X116972437Y-48389284D01*
X116965935Y-48367749D01*
X116913083Y-48268348D01*
X116870342Y-48187962D01*
X116870339Y-48187958D01*
X116869218Y-48185849D01*
X116739011Y-48026200D01*
X116580275Y-47894882D01*
X116399055Y-47796897D01*
X116202254Y-47735977D01*
X116199879Y-47735727D01*
X116199877Y-47735727D01*
X115999752Y-47714693D01*
X115999747Y-47714693D01*
X115997369Y-47714443D01*
X115994984Y-47714660D01*
X115994979Y-47714660D01*
X115894786Y-47723778D01*
X115792203Y-47733114D01*
X115659495Y-47772172D01*
X115596875Y-47790602D01*
X115596873Y-47790603D01*
X115594572Y-47791280D01*
X115412002Y-47886726D01*
X115330206Y-47952491D01*
X115253312Y-48014315D01*
X115253309Y-48014318D01*
X115251447Y-48015815D01*
X115249908Y-48017649D01*
X115249907Y-48017650D01*
X115229291Y-48042219D01*
X115119024Y-48173630D01*
X115117869Y-48175731D01*
X115031513Y-48332813D01*
X115019776Y-48354162D01*
X115019052Y-48356443D01*
X115019052Y-48356444D01*
X115009652Y-48386078D01*
X114957484Y-48550532D01*
X114934520Y-48755262D01*
X114504138Y-48755262D01*
X114485480Y-48564970D01*
X114480433Y-48548251D01*
X114432437Y-48389284D01*
X114425935Y-48367749D01*
X114373083Y-48268348D01*
X114330342Y-48187962D01*
X114330339Y-48187958D01*
X114329218Y-48185849D01*
X114199011Y-48026200D01*
X114040275Y-47894882D01*
X113859055Y-47796897D01*
X113662254Y-47735977D01*
X113659879Y-47735727D01*
X113659877Y-47735727D01*
X113459752Y-47714693D01*
X113459747Y-47714693D01*
X113457369Y-47714443D01*
X113454984Y-47714660D01*
X113454979Y-47714660D01*
X113354786Y-47723778D01*
X113252203Y-47733114D01*
X113119495Y-47772172D01*
X113056875Y-47790602D01*
X113056873Y-47790603D01*
X113054572Y-47791280D01*
X112872002Y-47886726D01*
X112790206Y-47952491D01*
X112713312Y-48014315D01*
X112713309Y-48014318D01*
X112711447Y-48015815D01*
X112709908Y-48017649D01*
X112709907Y-48017650D01*
X112689291Y-48042219D01*
X112579024Y-48173630D01*
X112577869Y-48175731D01*
X112491513Y-48332813D01*
X112479776Y-48354162D01*
X112479052Y-48356443D01*
X112479052Y-48356444D01*
X112469652Y-48386078D01*
X112417484Y-48550532D01*
X112394520Y-48755262D01*
X111964138Y-48755262D01*
X111945480Y-48564970D01*
X111940433Y-48548251D01*
X111892437Y-48389284D01*
X111885935Y-48367749D01*
X111833083Y-48268348D01*
X111790342Y-48187962D01*
X111790339Y-48187958D01*
X111789218Y-48185849D01*
X111659011Y-48026200D01*
X111500275Y-47894882D01*
X111319055Y-47796897D01*
X111122254Y-47735977D01*
X111119879Y-47735727D01*
X111119877Y-47735727D01*
X110919752Y-47714693D01*
X110919747Y-47714693D01*
X110917369Y-47714443D01*
X110914984Y-47714660D01*
X110914979Y-47714660D01*
X110814786Y-47723778D01*
X110712203Y-47733114D01*
X110579495Y-47772172D01*
X110516875Y-47790602D01*
X110516873Y-47790603D01*
X110514572Y-47791280D01*
X110332002Y-47886726D01*
X110250206Y-47952491D01*
X110173312Y-48014315D01*
X110173309Y-48014318D01*
X110171447Y-48015815D01*
X110169908Y-48017649D01*
X110169907Y-48017650D01*
X110149291Y-48042219D01*
X110039024Y-48173630D01*
X110037869Y-48175731D01*
X109951513Y-48332813D01*
X109939776Y-48354162D01*
X109939052Y-48356443D01*
X109939052Y-48356444D01*
X109929652Y-48386078D01*
X109877484Y-48550532D01*
X109854520Y-48755262D01*
X109420500Y-48755262D01*
X109420500Y-47900252D01*
X109408867Y-47841769D01*
X109364552Y-47775448D01*
X109306539Y-47736684D01*
X109302245Y-47733815D01*
X109298231Y-47731133D01*
X109239748Y-47719500D01*
X107500252Y-47719500D01*
X107441769Y-47731133D01*
X107437755Y-47733815D01*
X107433461Y-47736684D01*
X107375448Y-47775448D01*
X107331133Y-47841769D01*
X107319500Y-47900252D01*
X107319500Y-49639748D01*
X100100500Y-49639748D01*
X100100500Y-47554288D01*
X101945404Y-47554288D01*
X101945630Y-47556240D01*
X101945630Y-47556244D01*
X101966173Y-47733792D01*
X101974081Y-47802140D01*
X102042017Y-48042219D01*
X102042849Y-48044003D01*
X102042850Y-48044006D01*
X102146629Y-48266562D01*
X102147462Y-48268348D01*
X102148569Y-48269976D01*
X102148569Y-48269977D01*
X102286601Y-48473085D01*
X102286605Y-48473090D01*
X102287706Y-48474710D01*
X102289055Y-48476137D01*
X102289057Y-48476139D01*
X102387815Y-48580572D01*
X102459138Y-48655994D01*
X102460709Y-48657195D01*
X102460710Y-48657196D01*
X102648573Y-48800828D01*
X102657349Y-48807538D01*
X102877239Y-48925443D01*
X103113152Y-49006674D01*
X103359017Y-49049142D01*
X103360546Y-49049211D01*
X103360551Y-49049212D01*
X103388364Y-49050475D01*
X103388379Y-49050475D01*
X103388922Y-49050500D01*
X103562691Y-49050500D01*
X103563658Y-49050422D01*
X103563663Y-49050422D01*
X103746743Y-49035692D01*
X103746748Y-49035691D01*
X103748702Y-49035534D01*
X103750606Y-49035066D01*
X103750608Y-49035066D01*
X103989097Y-48976487D01*
X103989098Y-48976487D01*
X103991006Y-48976018D01*
X103992813Y-48975251D01*
X103992816Y-48975250D01*
X104218869Y-48879297D01*
X104218875Y-48879294D01*
X104220677Y-48878529D01*
X104431808Y-48745573D01*
X104618965Y-48580572D01*
X104707256Y-48473085D01*
X104776091Y-48389284D01*
X104776094Y-48389279D01*
X104777334Y-48387770D01*
X104788987Y-48367749D01*
X104901853Y-48173823D01*
X104902840Y-48172128D01*
X104992255Y-47939195D01*
X105035166Y-47733792D01*
X105042876Y-47696886D01*
X105042876Y-47696884D01*
X105043278Y-47694961D01*
X105054596Y-47445712D01*
X105053686Y-47437842D01*
X105026146Y-47199822D01*
X105025919Y-47197860D01*
X104957983Y-46957781D01*
X104945041Y-46930025D01*
X104853371Y-46733438D01*
X104853370Y-46733436D01*
X104852538Y-46731652D01*
X104814281Y-46675359D01*
X104713399Y-46526915D01*
X104713395Y-46526910D01*
X104712294Y-46525290D01*
X104703485Y-46515974D01*
X104542221Y-46345443D01*
X104542220Y-46345442D01*
X104540862Y-46344006D01*
X104428507Y-46258104D01*
X104372472Y-46215262D01*
X107314520Y-46215262D01*
X107314720Y-46217644D01*
X107314720Y-46217648D01*
X107318346Y-46260828D01*
X107331759Y-46420553D01*
X107349952Y-46484000D01*
X107387207Y-46613922D01*
X107388544Y-46618586D01*
X107482712Y-46801818D01*
X107484198Y-46803693D01*
X107484200Y-46803696D01*
X107514978Y-46842528D01*
X107610677Y-46963270D01*
X107612503Y-46964824D01*
X107612504Y-46964825D01*
X107727544Y-47062731D01*
X107767564Y-47096791D01*
X107947398Y-47197297D01*
X107970662Y-47204856D01*
X108141047Y-47260218D01*
X108141051Y-47260219D01*
X108143329Y-47260959D01*
X108347894Y-47285351D01*
X108553300Y-47269546D01*
X108751725Y-47214145D01*
X108753854Y-47213070D01*
X108753858Y-47213068D01*
X108840728Y-47169186D01*
X108935610Y-47121258D01*
X109097951Y-46994424D01*
X109104853Y-46986428D01*
X109230993Y-46840293D01*
X109230997Y-46840288D01*
X109232564Y-46838472D01*
X109334323Y-46659344D01*
X109347882Y-46618586D01*
X109390552Y-46490313D01*
X109399351Y-46463863D01*
X109413169Y-46354485D01*
X109425000Y-46260828D01*
X109425000Y-46260827D01*
X109425171Y-46259474D01*
X109425583Y-46230000D01*
X109424138Y-46215262D01*
X109854520Y-46215262D01*
X109854720Y-46217644D01*
X109854720Y-46217648D01*
X109858346Y-46260828D01*
X109871759Y-46420553D01*
X109889952Y-46484000D01*
X109927207Y-46613922D01*
X109928544Y-46618586D01*
X110022712Y-46801818D01*
X110024198Y-46803693D01*
X110024200Y-46803696D01*
X110054978Y-46842528D01*
X110150677Y-46963270D01*
X110152503Y-46964824D01*
X110152504Y-46964825D01*
X110267544Y-47062731D01*
X110307564Y-47096791D01*
X110487398Y-47197297D01*
X110510662Y-47204856D01*
X110681047Y-47260218D01*
X110681051Y-47260219D01*
X110683329Y-47260959D01*
X110887894Y-47285351D01*
X111093300Y-47269546D01*
X111291725Y-47214145D01*
X111293854Y-47213070D01*
X111293858Y-47213068D01*
X111380728Y-47169186D01*
X111475610Y-47121258D01*
X111637951Y-46994424D01*
X111644853Y-46986428D01*
X111770993Y-46840293D01*
X111770997Y-46840288D01*
X111772564Y-46838472D01*
X111874323Y-46659344D01*
X111887882Y-46618586D01*
X111930552Y-46490313D01*
X112116533Y-46490313D01*
X112149259Y-46635528D01*
X112150457Y-46639351D01*
X112232958Y-46842528D01*
X112234766Y-46846107D01*
X112349339Y-47033072D01*
X112351710Y-47036312D01*
X112495289Y-47202064D01*
X112498140Y-47204856D01*
X112666873Y-47344942D01*
X112670147Y-47347234D01*
X112859482Y-47457872D01*
X112863093Y-47459602D01*
X113067950Y-47537829D01*
X113071807Y-47538950D01*
X113186447Y-47562273D01*
X113193772Y-47560850D01*
X113196000Y-47557547D01*
X113196000Y-47556885D01*
X113704000Y-47556885D01*
X113706855Y-47563777D01*
X113711445Y-47565678D01*
X113731315Y-47563133D01*
X113735243Y-47562298D01*
X113945276Y-47499284D01*
X113949007Y-47497822D01*
X114145931Y-47401350D01*
X114149372Y-47399299D01*
X114327900Y-47271957D01*
X114330957Y-47269374D01*
X114486293Y-47114578D01*
X114488884Y-47111534D01*
X114616853Y-46933445D01*
X114618909Y-46930025D01*
X114716074Y-46733427D01*
X114717549Y-46729701D01*
X114781297Y-46519882D01*
X114782142Y-46515974D01*
X114785079Y-46493663D01*
X114783148Y-46486458D01*
X114778891Y-46484000D01*
X113713747Y-46484000D01*
X113706855Y-46486855D01*
X113704000Y-46493747D01*
X113704000Y-47556885D01*
X113196000Y-47556885D01*
X113196000Y-46493747D01*
X113193145Y-46486855D01*
X113186253Y-46484000D01*
X112124857Y-46484000D01*
X112117965Y-46486855D01*
X112116533Y-46490313D01*
X111930552Y-46490313D01*
X111939351Y-46463863D01*
X111953169Y-46354485D01*
X111965000Y-46260828D01*
X111965000Y-46260827D01*
X111965171Y-46259474D01*
X111965583Y-46230000D01*
X111964138Y-46215262D01*
X114934520Y-46215262D01*
X114934720Y-46217644D01*
X114934720Y-46217648D01*
X114938346Y-46260828D01*
X114951759Y-46420553D01*
X114969952Y-46484000D01*
X115007207Y-46613922D01*
X115008544Y-46618586D01*
X115102712Y-46801818D01*
X115104198Y-46803693D01*
X115104200Y-46803696D01*
X115134978Y-46842528D01*
X115230677Y-46963270D01*
X115232503Y-46964824D01*
X115232504Y-46964825D01*
X115347544Y-47062731D01*
X115387564Y-47096791D01*
X115567398Y-47197297D01*
X115590662Y-47204856D01*
X115761047Y-47260218D01*
X115761051Y-47260219D01*
X115763329Y-47260959D01*
X115967894Y-47285351D01*
X116173300Y-47269546D01*
X116371725Y-47214145D01*
X116373854Y-47213070D01*
X116373858Y-47213068D01*
X116460728Y-47169186D01*
X116555610Y-47121258D01*
X116717951Y-46994424D01*
X116724853Y-46986428D01*
X116850993Y-46840293D01*
X116850997Y-46840288D01*
X116852564Y-46838472D01*
X116954323Y-46659344D01*
X116967882Y-46618586D01*
X117010552Y-46490313D01*
X117019351Y-46463863D01*
X117033169Y-46354485D01*
X117045000Y-46260828D01*
X117045000Y-46260827D01*
X117045171Y-46259474D01*
X117045583Y-46230000D01*
X117044138Y-46215262D01*
X117474520Y-46215262D01*
X117474720Y-46217644D01*
X117474720Y-46217648D01*
X117478346Y-46260828D01*
X117491759Y-46420553D01*
X117509952Y-46484000D01*
X117547207Y-46613922D01*
X117548544Y-46618586D01*
X117642712Y-46801818D01*
X117644198Y-46803693D01*
X117644200Y-46803696D01*
X117674978Y-46842528D01*
X117770677Y-46963270D01*
X117772503Y-46964824D01*
X117772504Y-46964825D01*
X117887544Y-47062731D01*
X117927564Y-47096791D01*
X118107398Y-47197297D01*
X118130662Y-47204856D01*
X118301047Y-47260218D01*
X118301051Y-47260219D01*
X118303329Y-47260959D01*
X118507894Y-47285351D01*
X118713300Y-47269546D01*
X118911725Y-47214145D01*
X118913854Y-47213070D01*
X118913858Y-47213068D01*
X119000728Y-47169186D01*
X119095610Y-47121258D01*
X119257951Y-46994424D01*
X119264853Y-46986428D01*
X119390993Y-46840293D01*
X119390997Y-46840288D01*
X119392564Y-46838472D01*
X119494323Y-46659344D01*
X119507882Y-46618586D01*
X119550552Y-46490313D01*
X119559351Y-46463863D01*
X119573169Y-46354485D01*
X119585000Y-46260828D01*
X119585000Y-46260827D01*
X119585171Y-46259474D01*
X119585583Y-46230000D01*
X119584138Y-46215262D01*
X120014520Y-46215262D01*
X120014720Y-46217644D01*
X120014720Y-46217648D01*
X120018346Y-46260828D01*
X120031759Y-46420553D01*
X120049952Y-46484000D01*
X120087207Y-46613922D01*
X120088544Y-46618586D01*
X120182712Y-46801818D01*
X120184198Y-46803693D01*
X120184200Y-46803696D01*
X120214978Y-46842528D01*
X120310677Y-46963270D01*
X120312503Y-46964824D01*
X120312504Y-46964825D01*
X120427544Y-47062731D01*
X120467564Y-47096791D01*
X120647398Y-47197297D01*
X120670662Y-47204856D01*
X120841047Y-47260218D01*
X120841051Y-47260219D01*
X120843329Y-47260959D01*
X121047894Y-47285351D01*
X121253300Y-47269546D01*
X121451725Y-47214145D01*
X121453854Y-47213070D01*
X121453858Y-47213068D01*
X121540728Y-47169186D01*
X121635610Y-47121258D01*
X121797951Y-46994424D01*
X121804853Y-46986428D01*
X121930993Y-46840293D01*
X121930997Y-46840288D01*
X121932564Y-46838472D01*
X122034323Y-46659344D01*
X122047882Y-46618586D01*
X122090552Y-46490313D01*
X122276533Y-46490313D01*
X122309259Y-46635528D01*
X122310457Y-46639351D01*
X122392958Y-46842528D01*
X122394766Y-46846107D01*
X122509339Y-47033072D01*
X122511710Y-47036312D01*
X122655289Y-47202064D01*
X122658140Y-47204856D01*
X122826873Y-47344942D01*
X122830147Y-47347234D01*
X123019482Y-47457872D01*
X123023093Y-47459602D01*
X123227950Y-47537829D01*
X123231807Y-47538950D01*
X123346447Y-47562273D01*
X123353772Y-47560850D01*
X123356000Y-47557547D01*
X123356000Y-47556885D01*
X123864000Y-47556885D01*
X123866855Y-47563777D01*
X123871445Y-47565678D01*
X123891315Y-47563133D01*
X123895243Y-47562298D01*
X124105276Y-47499284D01*
X124109007Y-47497822D01*
X124305931Y-47401350D01*
X124309372Y-47399299D01*
X124487900Y-47271957D01*
X124490957Y-47269374D01*
X124646293Y-47114578D01*
X124648884Y-47111534D01*
X124776853Y-46933445D01*
X124778909Y-46930025D01*
X124876074Y-46733427D01*
X124877549Y-46729701D01*
X124941297Y-46519882D01*
X124942142Y-46515974D01*
X124945079Y-46493663D01*
X124943148Y-46486458D01*
X124938891Y-46484000D01*
X123873747Y-46484000D01*
X123866855Y-46486855D01*
X123864000Y-46493747D01*
X123864000Y-47556885D01*
X123356000Y-47556885D01*
X123356000Y-46493747D01*
X123353145Y-46486855D01*
X123346253Y-46484000D01*
X122284857Y-46484000D01*
X122277965Y-46486855D01*
X122276533Y-46490313D01*
X122090552Y-46490313D01*
X122099351Y-46463863D01*
X122113169Y-46354485D01*
X122125000Y-46260828D01*
X122125000Y-46260827D01*
X122125171Y-46259474D01*
X122125583Y-46230000D01*
X122124138Y-46215262D01*
X125094520Y-46215262D01*
X125094720Y-46217644D01*
X125094720Y-46217648D01*
X125098346Y-46260828D01*
X125111759Y-46420553D01*
X125129952Y-46484000D01*
X125167207Y-46613922D01*
X125168544Y-46618586D01*
X125262712Y-46801818D01*
X125264198Y-46803693D01*
X125264200Y-46803696D01*
X125294978Y-46842528D01*
X125390677Y-46963270D01*
X125392503Y-46964824D01*
X125392504Y-46964825D01*
X125507544Y-47062731D01*
X125547564Y-47096791D01*
X125727398Y-47197297D01*
X125750662Y-47204856D01*
X125921047Y-47260218D01*
X125921051Y-47260219D01*
X125923329Y-47260959D01*
X126127894Y-47285351D01*
X126333300Y-47269546D01*
X126531725Y-47214145D01*
X126533854Y-47213070D01*
X126533858Y-47213068D01*
X126620728Y-47169186D01*
X126715610Y-47121258D01*
X126877951Y-46994424D01*
X126884853Y-46986428D01*
X127010993Y-46840293D01*
X127010997Y-46840288D01*
X127012564Y-46838472D01*
X127114323Y-46659344D01*
X127127882Y-46618586D01*
X127170552Y-46490313D01*
X127179351Y-46463863D01*
X127193169Y-46354485D01*
X127205000Y-46260828D01*
X127205000Y-46260827D01*
X127205171Y-46259474D01*
X127205583Y-46230000D01*
X127204138Y-46215262D01*
X127634520Y-46215262D01*
X127634720Y-46217644D01*
X127634720Y-46217648D01*
X127638346Y-46260828D01*
X127651759Y-46420553D01*
X127669952Y-46484000D01*
X127707207Y-46613922D01*
X127708544Y-46618586D01*
X127802712Y-46801818D01*
X127804198Y-46803693D01*
X127804200Y-46803696D01*
X127834978Y-46842528D01*
X127930677Y-46963270D01*
X127932503Y-46964824D01*
X127932504Y-46964825D01*
X128047544Y-47062731D01*
X128087564Y-47096791D01*
X128267398Y-47197297D01*
X128290662Y-47204856D01*
X128461047Y-47260218D01*
X128461051Y-47260219D01*
X128463329Y-47260959D01*
X128667894Y-47285351D01*
X128873300Y-47269546D01*
X129071725Y-47214145D01*
X129073854Y-47213070D01*
X129073858Y-47213068D01*
X129160728Y-47169186D01*
X129255610Y-47121258D01*
X129417951Y-46994424D01*
X129424853Y-46986428D01*
X129550993Y-46840293D01*
X129550997Y-46840288D01*
X129552564Y-46838472D01*
X129654323Y-46659344D01*
X129667882Y-46618586D01*
X129710552Y-46490313D01*
X129896533Y-46490313D01*
X129929259Y-46635528D01*
X129930457Y-46639351D01*
X130012958Y-46842528D01*
X130014766Y-46846107D01*
X130129339Y-47033072D01*
X130131710Y-47036312D01*
X130275289Y-47202064D01*
X130278140Y-47204856D01*
X130446873Y-47344942D01*
X130450147Y-47347234D01*
X130639482Y-47457872D01*
X130643093Y-47459602D01*
X130847950Y-47537829D01*
X130851807Y-47538950D01*
X130966447Y-47562273D01*
X130973772Y-47560850D01*
X130976000Y-47557547D01*
X130976000Y-47556885D01*
X131484000Y-47556885D01*
X131486855Y-47563777D01*
X131491445Y-47565678D01*
X131511315Y-47563133D01*
X131515243Y-47562298D01*
X131725276Y-47499284D01*
X131729007Y-47497822D01*
X131925931Y-47401350D01*
X131929372Y-47399299D01*
X132107900Y-47271957D01*
X132110957Y-47269374D01*
X132266293Y-47114578D01*
X132268884Y-47111534D01*
X132396853Y-46933445D01*
X132398909Y-46930025D01*
X132496074Y-46733427D01*
X132497549Y-46729701D01*
X132561297Y-46519882D01*
X132562142Y-46515974D01*
X132565079Y-46493663D01*
X132563148Y-46486458D01*
X132558891Y-46484000D01*
X131493747Y-46484000D01*
X131486855Y-46486855D01*
X131484000Y-46493747D01*
X131484000Y-47556885D01*
X130976000Y-47556885D01*
X130976000Y-46493747D01*
X130973145Y-46486855D01*
X130966253Y-46484000D01*
X129904857Y-46484000D01*
X129897965Y-46486855D01*
X129896533Y-46490313D01*
X129710552Y-46490313D01*
X129719351Y-46463863D01*
X129733169Y-46354485D01*
X129745000Y-46260828D01*
X129745000Y-46260827D01*
X129745171Y-46259474D01*
X129745583Y-46230000D01*
X129744138Y-46215262D01*
X132714520Y-46215262D01*
X132714720Y-46217644D01*
X132714720Y-46217648D01*
X132718346Y-46260828D01*
X132731759Y-46420553D01*
X132749952Y-46484000D01*
X132787207Y-46613922D01*
X132788544Y-46618586D01*
X132882712Y-46801818D01*
X132884198Y-46803693D01*
X132884200Y-46803696D01*
X132914978Y-46842528D01*
X133010677Y-46963270D01*
X133012503Y-46964824D01*
X133012504Y-46964825D01*
X133127544Y-47062731D01*
X133167564Y-47096791D01*
X133347398Y-47197297D01*
X133370662Y-47204856D01*
X133541047Y-47260218D01*
X133541051Y-47260219D01*
X133543329Y-47260959D01*
X133747894Y-47285351D01*
X133953300Y-47269546D01*
X134151725Y-47214145D01*
X134153854Y-47213070D01*
X134153858Y-47213068D01*
X134240728Y-47169186D01*
X134335610Y-47121258D01*
X134497951Y-46994424D01*
X134504853Y-46986428D01*
X134630993Y-46840293D01*
X134630997Y-46840288D01*
X134632564Y-46838472D01*
X134734323Y-46659344D01*
X134747882Y-46618586D01*
X134790552Y-46490313D01*
X134799351Y-46463863D01*
X134813169Y-46354485D01*
X134825000Y-46260828D01*
X134825000Y-46260827D01*
X134825171Y-46259474D01*
X134825583Y-46230000D01*
X134824138Y-46215262D01*
X135254520Y-46215262D01*
X135254720Y-46217644D01*
X135254720Y-46217648D01*
X135258346Y-46260828D01*
X135271759Y-46420553D01*
X135289952Y-46484000D01*
X135327207Y-46613922D01*
X135328544Y-46618586D01*
X135422712Y-46801818D01*
X135424198Y-46803693D01*
X135424200Y-46803696D01*
X135454978Y-46842528D01*
X135550677Y-46963270D01*
X135552503Y-46964824D01*
X135552504Y-46964825D01*
X135667544Y-47062731D01*
X135707564Y-47096791D01*
X135887398Y-47197297D01*
X135910662Y-47204856D01*
X136081047Y-47260218D01*
X136081051Y-47260219D01*
X136083329Y-47260959D01*
X136287894Y-47285351D01*
X136493300Y-47269546D01*
X136691725Y-47214145D01*
X136693854Y-47213070D01*
X136693858Y-47213068D01*
X136780728Y-47169186D01*
X136875610Y-47121258D01*
X137037951Y-46994424D01*
X137044853Y-46986428D01*
X137170993Y-46840293D01*
X137170997Y-46840288D01*
X137172564Y-46838472D01*
X137274323Y-46659344D01*
X137287882Y-46618586D01*
X137330552Y-46490313D01*
X137339351Y-46463863D01*
X137353169Y-46354485D01*
X137365000Y-46260828D01*
X137365000Y-46260827D01*
X137365171Y-46259474D01*
X137365583Y-46230000D01*
X137364138Y-46215262D01*
X137794520Y-46215262D01*
X137794720Y-46217644D01*
X137794720Y-46217648D01*
X137798346Y-46260828D01*
X137811759Y-46420553D01*
X137829952Y-46484000D01*
X137867207Y-46613922D01*
X137868544Y-46618586D01*
X137962712Y-46801818D01*
X137964198Y-46803693D01*
X137964200Y-46803696D01*
X137994978Y-46842528D01*
X138090677Y-46963270D01*
X138092503Y-46964824D01*
X138092504Y-46964825D01*
X138207544Y-47062731D01*
X138247564Y-47096791D01*
X138427398Y-47197297D01*
X138450662Y-47204856D01*
X138621047Y-47260218D01*
X138621051Y-47260219D01*
X138623329Y-47260959D01*
X138827894Y-47285351D01*
X139033300Y-47269546D01*
X139231725Y-47214145D01*
X139233854Y-47213070D01*
X139233858Y-47213068D01*
X139320728Y-47169186D01*
X139415610Y-47121258D01*
X139577951Y-46994424D01*
X139584853Y-46986428D01*
X139710993Y-46840293D01*
X139710997Y-46840288D01*
X139712564Y-46838472D01*
X139814323Y-46659344D01*
X139827882Y-46618586D01*
X139870552Y-46490313D01*
X139879351Y-46463863D01*
X139893169Y-46354485D01*
X139905000Y-46260828D01*
X139905000Y-46260827D01*
X139905171Y-46259474D01*
X139905583Y-46230000D01*
X139904138Y-46215262D01*
X140334520Y-46215262D01*
X140334720Y-46217644D01*
X140334720Y-46217648D01*
X140338346Y-46260828D01*
X140351759Y-46420553D01*
X140369952Y-46484000D01*
X140407207Y-46613922D01*
X140408544Y-46618586D01*
X140502712Y-46801818D01*
X140504198Y-46803693D01*
X140504200Y-46803696D01*
X140534978Y-46842528D01*
X140630677Y-46963270D01*
X140632503Y-46964824D01*
X140632504Y-46964825D01*
X140747544Y-47062731D01*
X140787564Y-47096791D01*
X140967398Y-47197297D01*
X140990662Y-47204856D01*
X141161047Y-47260218D01*
X141161051Y-47260219D01*
X141163329Y-47260959D01*
X141367894Y-47285351D01*
X141573300Y-47269546D01*
X141771725Y-47214145D01*
X141773854Y-47213070D01*
X141773858Y-47213068D01*
X141860728Y-47169186D01*
X141955610Y-47121258D01*
X142117951Y-46994424D01*
X142124853Y-46986428D01*
X142250993Y-46840293D01*
X142250997Y-46840288D01*
X142252564Y-46838472D01*
X142354323Y-46659344D01*
X142367882Y-46618586D01*
X142410552Y-46490313D01*
X142596533Y-46490313D01*
X142629259Y-46635528D01*
X142630457Y-46639351D01*
X142712958Y-46842528D01*
X142714766Y-46846107D01*
X142829339Y-47033072D01*
X142831710Y-47036312D01*
X142975289Y-47202064D01*
X142978140Y-47204856D01*
X143146873Y-47344942D01*
X143150147Y-47347234D01*
X143339482Y-47457872D01*
X143343093Y-47459602D01*
X143547950Y-47537829D01*
X143551807Y-47538950D01*
X143666447Y-47562273D01*
X143673772Y-47560850D01*
X143676000Y-47557547D01*
X143676000Y-47556885D01*
X144184000Y-47556885D01*
X144186855Y-47563777D01*
X144191445Y-47565678D01*
X144211315Y-47563133D01*
X144215243Y-47562298D01*
X144425276Y-47499284D01*
X144429007Y-47497822D01*
X144625931Y-47401350D01*
X144629372Y-47399299D01*
X144807900Y-47271957D01*
X144810957Y-47269374D01*
X144966293Y-47114578D01*
X144968884Y-47111534D01*
X145096853Y-46933445D01*
X145098909Y-46930025D01*
X145196074Y-46733427D01*
X145197549Y-46729701D01*
X145261297Y-46519882D01*
X145262142Y-46515974D01*
X145265079Y-46493663D01*
X145263148Y-46486458D01*
X145258891Y-46484000D01*
X144193747Y-46484000D01*
X144186855Y-46486855D01*
X144184000Y-46493747D01*
X144184000Y-47556885D01*
X143676000Y-47556885D01*
X143676000Y-46493747D01*
X143673145Y-46486855D01*
X143666253Y-46484000D01*
X142604857Y-46484000D01*
X142597965Y-46486855D01*
X142596533Y-46490313D01*
X142410552Y-46490313D01*
X142419351Y-46463863D01*
X142433169Y-46354485D01*
X142445000Y-46260828D01*
X142445000Y-46260827D01*
X142445171Y-46259474D01*
X142445583Y-46230000D01*
X142444138Y-46215262D01*
X145414520Y-46215262D01*
X145414720Y-46217644D01*
X145414720Y-46217648D01*
X145418346Y-46260828D01*
X145431759Y-46420553D01*
X145449952Y-46484000D01*
X145487207Y-46613922D01*
X145488544Y-46618586D01*
X145582712Y-46801818D01*
X145584198Y-46803693D01*
X145584200Y-46803696D01*
X145614978Y-46842528D01*
X145710677Y-46963270D01*
X145712503Y-46964824D01*
X145712504Y-46964825D01*
X145827544Y-47062731D01*
X145867564Y-47096791D01*
X146047398Y-47197297D01*
X146070662Y-47204856D01*
X146241047Y-47260218D01*
X146241051Y-47260219D01*
X146243329Y-47260959D01*
X146447894Y-47285351D01*
X146653300Y-47269546D01*
X146851725Y-47214145D01*
X146853854Y-47213070D01*
X146853858Y-47213068D01*
X146940728Y-47169186D01*
X147035610Y-47121258D01*
X147197951Y-46994424D01*
X147204853Y-46986428D01*
X147330993Y-46840293D01*
X147330997Y-46840288D01*
X147332564Y-46838472D01*
X147434323Y-46659344D01*
X147447882Y-46618586D01*
X147490552Y-46490313D01*
X147676533Y-46490313D01*
X147709259Y-46635528D01*
X147710457Y-46639351D01*
X147792958Y-46842528D01*
X147794766Y-46846107D01*
X147909339Y-47033072D01*
X147911710Y-47036312D01*
X148055289Y-47202064D01*
X148058140Y-47204856D01*
X148226873Y-47344942D01*
X148230147Y-47347234D01*
X148419482Y-47457872D01*
X148423093Y-47459602D01*
X148627950Y-47537829D01*
X148631807Y-47538950D01*
X148746447Y-47562273D01*
X148753772Y-47560850D01*
X148756000Y-47557547D01*
X148756000Y-47556885D01*
X149264000Y-47556885D01*
X149266855Y-47563777D01*
X149271445Y-47565678D01*
X149291315Y-47563133D01*
X149295243Y-47562298D01*
X149505276Y-47499284D01*
X149509007Y-47497822D01*
X149705931Y-47401350D01*
X149709372Y-47399299D01*
X149887900Y-47271957D01*
X149890957Y-47269374D01*
X150046293Y-47114578D01*
X150048884Y-47111534D01*
X150176853Y-46933445D01*
X150178909Y-46930025D01*
X150276074Y-46733427D01*
X150277549Y-46729701D01*
X150341297Y-46519882D01*
X150342142Y-46515974D01*
X150345079Y-46493663D01*
X150343148Y-46486458D01*
X150338891Y-46484000D01*
X149273747Y-46484000D01*
X149266855Y-46486855D01*
X149264000Y-46493747D01*
X149264000Y-47556885D01*
X148756000Y-47556885D01*
X148756000Y-46493747D01*
X148753145Y-46486855D01*
X148746253Y-46484000D01*
X147684857Y-46484000D01*
X147677965Y-46486855D01*
X147676533Y-46490313D01*
X147490552Y-46490313D01*
X147499351Y-46463863D01*
X147513169Y-46354485D01*
X147525000Y-46260828D01*
X147525000Y-46260827D01*
X147525171Y-46259474D01*
X147525583Y-46230000D01*
X147524138Y-46215262D01*
X150494520Y-46215262D01*
X150494720Y-46217644D01*
X150494720Y-46217648D01*
X150498346Y-46260828D01*
X150511759Y-46420553D01*
X150529952Y-46484000D01*
X150567207Y-46613922D01*
X150568544Y-46618586D01*
X150662712Y-46801818D01*
X150664198Y-46803693D01*
X150664200Y-46803696D01*
X150694978Y-46842528D01*
X150790677Y-46963270D01*
X150792503Y-46964824D01*
X150792504Y-46964825D01*
X150907544Y-47062731D01*
X150947564Y-47096791D01*
X151127398Y-47197297D01*
X151150662Y-47204856D01*
X151321047Y-47260218D01*
X151321051Y-47260219D01*
X151323329Y-47260959D01*
X151527894Y-47285351D01*
X151733300Y-47269546D01*
X151931725Y-47214145D01*
X151933854Y-47213070D01*
X151933858Y-47213068D01*
X152020728Y-47169186D01*
X152115610Y-47121258D01*
X152277951Y-46994424D01*
X152284853Y-46986428D01*
X152410993Y-46840293D01*
X152410997Y-46840288D01*
X152412564Y-46838472D01*
X152514323Y-46659344D01*
X152527882Y-46618586D01*
X152570552Y-46490313D01*
X152579351Y-46463863D01*
X152593169Y-46354485D01*
X152605000Y-46260828D01*
X152605000Y-46260827D01*
X152605171Y-46259474D01*
X152605583Y-46230000D01*
X152604138Y-46215262D01*
X153034520Y-46215262D01*
X153034720Y-46217644D01*
X153034720Y-46217648D01*
X153038346Y-46260828D01*
X153051759Y-46420553D01*
X153069952Y-46484000D01*
X153107207Y-46613922D01*
X153108544Y-46618586D01*
X153202712Y-46801818D01*
X153204198Y-46803693D01*
X153204200Y-46803696D01*
X153234978Y-46842528D01*
X153330677Y-46963270D01*
X153332503Y-46964824D01*
X153332504Y-46964825D01*
X153447544Y-47062731D01*
X153487564Y-47096791D01*
X153667398Y-47197297D01*
X153690662Y-47204856D01*
X153861047Y-47260218D01*
X153861051Y-47260219D01*
X153863329Y-47260959D01*
X154067894Y-47285351D01*
X154273300Y-47269546D01*
X154471725Y-47214145D01*
X154473854Y-47213070D01*
X154473858Y-47213068D01*
X154560728Y-47169186D01*
X154655610Y-47121258D01*
X154817951Y-46994424D01*
X154824853Y-46986428D01*
X154950993Y-46840293D01*
X154950997Y-46840288D01*
X154952564Y-46838472D01*
X155054323Y-46659344D01*
X155067882Y-46618586D01*
X155110552Y-46490313D01*
X155119351Y-46463863D01*
X155133169Y-46354485D01*
X155145000Y-46260828D01*
X155145000Y-46260827D01*
X155145171Y-46259474D01*
X155145583Y-46230000D01*
X155144138Y-46215262D01*
X155574520Y-46215262D01*
X155574720Y-46217644D01*
X155574720Y-46217648D01*
X155578346Y-46260828D01*
X155591759Y-46420553D01*
X155609952Y-46484000D01*
X155647207Y-46613922D01*
X155648544Y-46618586D01*
X155742712Y-46801818D01*
X155744198Y-46803693D01*
X155744200Y-46803696D01*
X155774978Y-46842528D01*
X155870677Y-46963270D01*
X155872503Y-46964824D01*
X155872504Y-46964825D01*
X155987544Y-47062731D01*
X156027564Y-47096791D01*
X156207398Y-47197297D01*
X156230662Y-47204856D01*
X156401047Y-47260218D01*
X156401051Y-47260219D01*
X156403329Y-47260959D01*
X156607894Y-47285351D01*
X156813300Y-47269546D01*
X157011725Y-47214145D01*
X157013854Y-47213070D01*
X157013858Y-47213068D01*
X157100728Y-47169186D01*
X157195610Y-47121258D01*
X157357951Y-46994424D01*
X157364853Y-46986428D01*
X157490993Y-46840293D01*
X157490997Y-46840288D01*
X157492564Y-46838472D01*
X157594323Y-46659344D01*
X157607882Y-46618586D01*
X157650552Y-46490313D01*
X157659351Y-46463863D01*
X157673169Y-46354485D01*
X157685000Y-46260828D01*
X157685000Y-46260827D01*
X157685171Y-46259474D01*
X157685583Y-46230000D01*
X157665480Y-46024970D01*
X157660433Y-46008251D01*
X157606626Y-45830039D01*
X157605935Y-45827749D01*
X157561668Y-45744494D01*
X157510342Y-45647962D01*
X157510339Y-45647958D01*
X157509218Y-45645849D01*
X157379011Y-45486200D01*
X157220275Y-45354882D01*
X157039055Y-45256897D01*
X156842254Y-45195977D01*
X156839879Y-45195727D01*
X156839877Y-45195727D01*
X156639752Y-45174693D01*
X156639747Y-45174693D01*
X156637369Y-45174443D01*
X156634984Y-45174660D01*
X156634979Y-45174660D01*
X156534786Y-45183779D01*
X156432203Y-45193114D01*
X156299495Y-45232172D01*
X156236875Y-45250602D01*
X156236873Y-45250603D01*
X156234572Y-45251280D01*
X156052002Y-45346726D01*
X155970206Y-45412491D01*
X155893312Y-45474315D01*
X155893309Y-45474318D01*
X155891447Y-45475815D01*
X155889908Y-45477649D01*
X155889907Y-45477650D01*
X155841151Y-45535755D01*
X155759024Y-45633630D01*
X155757869Y-45635731D01*
X155671513Y-45792813D01*
X155659776Y-45814162D01*
X155659052Y-45816443D01*
X155659052Y-45816444D01*
X155646616Y-45855649D01*
X155597484Y-46010532D01*
X155574520Y-46215262D01*
X155144138Y-46215262D01*
X155125480Y-46024970D01*
X155120433Y-46008251D01*
X155066626Y-45830039D01*
X155065935Y-45827749D01*
X155021668Y-45744494D01*
X154970342Y-45647962D01*
X154970339Y-45647958D01*
X154969218Y-45645849D01*
X154839011Y-45486200D01*
X154680275Y-45354882D01*
X154499055Y-45256897D01*
X154302254Y-45195977D01*
X154299879Y-45195727D01*
X154299877Y-45195727D01*
X154099752Y-45174693D01*
X154099747Y-45174693D01*
X154097369Y-45174443D01*
X154094984Y-45174660D01*
X154094979Y-45174660D01*
X153994786Y-45183779D01*
X153892203Y-45193114D01*
X153759495Y-45232172D01*
X153696875Y-45250602D01*
X153696873Y-45250603D01*
X153694572Y-45251280D01*
X153512002Y-45346726D01*
X153430206Y-45412491D01*
X153353312Y-45474315D01*
X153353309Y-45474318D01*
X153351447Y-45475815D01*
X153349908Y-45477649D01*
X153349907Y-45477650D01*
X153301151Y-45535755D01*
X153219024Y-45633630D01*
X153217869Y-45635731D01*
X153131513Y-45792813D01*
X153119776Y-45814162D01*
X153119052Y-45816443D01*
X153119052Y-45816444D01*
X153106616Y-45855649D01*
X153057484Y-46010532D01*
X153034520Y-46215262D01*
X152604138Y-46215262D01*
X152585480Y-46024970D01*
X152580433Y-46008251D01*
X152526626Y-45830039D01*
X152525935Y-45827749D01*
X152481668Y-45744494D01*
X152430342Y-45647962D01*
X152430339Y-45647958D01*
X152429218Y-45645849D01*
X152299011Y-45486200D01*
X152140275Y-45354882D01*
X151959055Y-45256897D01*
X151762254Y-45195977D01*
X151759879Y-45195727D01*
X151759877Y-45195727D01*
X151559752Y-45174693D01*
X151559747Y-45174693D01*
X151557369Y-45174443D01*
X151554984Y-45174660D01*
X151554979Y-45174660D01*
X151454786Y-45183779D01*
X151352203Y-45193114D01*
X151219495Y-45232172D01*
X151156875Y-45250602D01*
X151156873Y-45250603D01*
X151154572Y-45251280D01*
X150972002Y-45346726D01*
X150890206Y-45412491D01*
X150813312Y-45474315D01*
X150813309Y-45474318D01*
X150811447Y-45475815D01*
X150809908Y-45477649D01*
X150809907Y-45477650D01*
X150761151Y-45535755D01*
X150679024Y-45633630D01*
X150677869Y-45635731D01*
X150591513Y-45792813D01*
X150579776Y-45814162D01*
X150579052Y-45816443D01*
X150579052Y-45816444D01*
X150566616Y-45855649D01*
X150517484Y-46010532D01*
X150494520Y-46215262D01*
X147524138Y-46215262D01*
X147505480Y-46024970D01*
X147500433Y-46008251D01*
X147488521Y-45968798D01*
X147673109Y-45968798D01*
X147674482Y-45973466D01*
X147679128Y-45976000D01*
X148746253Y-45976000D01*
X148753145Y-45973145D01*
X148756000Y-45966253D01*
X149264000Y-45966253D01*
X149266855Y-45973145D01*
X149273747Y-45976000D01*
X150336712Y-45976000D01*
X150343604Y-45973145D01*
X150344935Y-45969932D01*
X150300445Y-45792813D01*
X150299153Y-45789019D01*
X150211714Y-45587922D01*
X150209818Y-45584386D01*
X150090709Y-45400270D01*
X150088266Y-45397098D01*
X149940679Y-45234903D01*
X149937751Y-45232172D01*
X149765660Y-45096264D01*
X149762322Y-45094046D01*
X149570343Y-44988067D01*
X149566685Y-44986424D01*
X149359978Y-44913225D01*
X149356109Y-44912202D01*
X149273596Y-44897504D01*
X149266310Y-44899106D01*
X149264000Y-44902719D01*
X149264000Y-45966253D01*
X148756000Y-45966253D01*
X148756000Y-44904734D01*
X148753145Y-44897842D01*
X148748882Y-44896076D01*
X148696202Y-44904138D01*
X148692290Y-44905070D01*
X148483857Y-44973196D01*
X148480175Y-44974743D01*
X148285657Y-45076003D01*
X148282267Y-45078138D01*
X148106903Y-45209805D01*
X148103907Y-45212465D01*
X147952407Y-45371001D01*
X147949889Y-45374110D01*
X147826311Y-45555268D01*
X147824332Y-45558752D01*
X147732007Y-45757650D01*
X147730621Y-45761418D01*
X147673109Y-45968798D01*
X147488521Y-45968798D01*
X147446626Y-45830039D01*
X147445935Y-45827749D01*
X147401668Y-45744494D01*
X147350342Y-45647962D01*
X147350339Y-45647958D01*
X147349218Y-45645849D01*
X147219011Y-45486200D01*
X147060275Y-45354882D01*
X146879055Y-45256897D01*
X146682254Y-45195977D01*
X146679879Y-45195727D01*
X146679877Y-45195727D01*
X146479752Y-45174693D01*
X146479747Y-45174693D01*
X146477369Y-45174443D01*
X146474984Y-45174660D01*
X146474979Y-45174660D01*
X146374786Y-45183779D01*
X146272203Y-45193114D01*
X146139495Y-45232172D01*
X146076875Y-45250602D01*
X146076873Y-45250603D01*
X146074572Y-45251280D01*
X145892002Y-45346726D01*
X145810206Y-45412491D01*
X145733312Y-45474315D01*
X145733309Y-45474318D01*
X145731447Y-45475815D01*
X145729908Y-45477649D01*
X145729907Y-45477650D01*
X145681151Y-45535755D01*
X145599024Y-45633630D01*
X145597869Y-45635731D01*
X145511513Y-45792813D01*
X145499776Y-45814162D01*
X145499052Y-45816443D01*
X145499052Y-45816444D01*
X145486616Y-45855649D01*
X145437484Y-46010532D01*
X145414520Y-46215262D01*
X142444138Y-46215262D01*
X142425480Y-46024970D01*
X142420433Y-46008251D01*
X142408521Y-45968798D01*
X142593109Y-45968798D01*
X142594482Y-45973466D01*
X142599128Y-45976000D01*
X143666253Y-45976000D01*
X143673145Y-45973145D01*
X143676000Y-45966253D01*
X144184000Y-45966253D01*
X144186855Y-45973145D01*
X144193747Y-45976000D01*
X145256712Y-45976000D01*
X145263604Y-45973145D01*
X145264935Y-45969932D01*
X145220445Y-45792813D01*
X145219153Y-45789019D01*
X145131714Y-45587922D01*
X145129818Y-45584386D01*
X145010709Y-45400270D01*
X145008266Y-45397098D01*
X144860679Y-45234903D01*
X144857751Y-45232172D01*
X144685660Y-45096264D01*
X144682322Y-45094046D01*
X144490343Y-44988067D01*
X144486685Y-44986424D01*
X144279978Y-44913225D01*
X144276109Y-44912202D01*
X144193596Y-44897504D01*
X144186310Y-44899106D01*
X144184000Y-44902719D01*
X144184000Y-45966253D01*
X143676000Y-45966253D01*
X143676000Y-44904734D01*
X143673145Y-44897842D01*
X143668882Y-44896076D01*
X143616202Y-44904138D01*
X143612290Y-44905070D01*
X143403857Y-44973196D01*
X143400175Y-44974743D01*
X143205657Y-45076003D01*
X143202267Y-45078138D01*
X143026903Y-45209805D01*
X143023907Y-45212465D01*
X142872407Y-45371001D01*
X142869889Y-45374110D01*
X142746311Y-45555268D01*
X142744332Y-45558752D01*
X142652007Y-45757650D01*
X142650621Y-45761418D01*
X142593109Y-45968798D01*
X142408521Y-45968798D01*
X142366626Y-45830039D01*
X142365935Y-45827749D01*
X142321668Y-45744494D01*
X142270342Y-45647962D01*
X142270339Y-45647958D01*
X142269218Y-45645849D01*
X142139011Y-45486200D01*
X141980275Y-45354882D01*
X141799055Y-45256897D01*
X141602254Y-45195977D01*
X141599879Y-45195727D01*
X141599877Y-45195727D01*
X141399752Y-45174693D01*
X141399747Y-45174693D01*
X141397369Y-45174443D01*
X141394984Y-45174660D01*
X141394979Y-45174660D01*
X141294786Y-45183779D01*
X141192203Y-45193114D01*
X141059495Y-45232172D01*
X140996875Y-45250602D01*
X140996873Y-45250603D01*
X140994572Y-45251280D01*
X140812002Y-45346726D01*
X140730206Y-45412491D01*
X140653312Y-45474315D01*
X140653309Y-45474318D01*
X140651447Y-45475815D01*
X140649908Y-45477649D01*
X140649907Y-45477650D01*
X140601151Y-45535755D01*
X140519024Y-45633630D01*
X140517869Y-45635731D01*
X140431513Y-45792813D01*
X140419776Y-45814162D01*
X140419052Y-45816443D01*
X140419052Y-45816444D01*
X140406616Y-45855649D01*
X140357484Y-46010532D01*
X140334520Y-46215262D01*
X139904138Y-46215262D01*
X139885480Y-46024970D01*
X139880433Y-46008251D01*
X139826626Y-45830039D01*
X139825935Y-45827749D01*
X139781668Y-45744494D01*
X139730342Y-45647962D01*
X139730339Y-45647958D01*
X139729218Y-45645849D01*
X139599011Y-45486200D01*
X139440275Y-45354882D01*
X139259055Y-45256897D01*
X139062254Y-45195977D01*
X139059879Y-45195727D01*
X139059877Y-45195727D01*
X138859752Y-45174693D01*
X138859747Y-45174693D01*
X138857369Y-45174443D01*
X138854984Y-45174660D01*
X138854979Y-45174660D01*
X138754786Y-45183779D01*
X138652203Y-45193114D01*
X138519495Y-45232172D01*
X138456875Y-45250602D01*
X138456873Y-45250603D01*
X138454572Y-45251280D01*
X138272002Y-45346726D01*
X138190206Y-45412491D01*
X138113312Y-45474315D01*
X138113309Y-45474318D01*
X138111447Y-45475815D01*
X138109908Y-45477649D01*
X138109907Y-45477650D01*
X138061151Y-45535755D01*
X137979024Y-45633630D01*
X137977869Y-45635731D01*
X137891513Y-45792813D01*
X137879776Y-45814162D01*
X137879052Y-45816443D01*
X137879052Y-45816444D01*
X137866616Y-45855649D01*
X137817484Y-46010532D01*
X137794520Y-46215262D01*
X137364138Y-46215262D01*
X137345480Y-46024970D01*
X137340433Y-46008251D01*
X137286626Y-45830039D01*
X137285935Y-45827749D01*
X137241668Y-45744494D01*
X137190342Y-45647962D01*
X137190339Y-45647958D01*
X137189218Y-45645849D01*
X137059011Y-45486200D01*
X136900275Y-45354882D01*
X136719055Y-45256897D01*
X136522254Y-45195977D01*
X136519879Y-45195727D01*
X136519877Y-45195727D01*
X136319752Y-45174693D01*
X136319747Y-45174693D01*
X136317369Y-45174443D01*
X136314984Y-45174660D01*
X136314979Y-45174660D01*
X136214786Y-45183779D01*
X136112203Y-45193114D01*
X135979495Y-45232172D01*
X135916875Y-45250602D01*
X135916873Y-45250603D01*
X135914572Y-45251280D01*
X135732002Y-45346726D01*
X135650206Y-45412491D01*
X135573312Y-45474315D01*
X135573309Y-45474318D01*
X135571447Y-45475815D01*
X135569908Y-45477649D01*
X135569907Y-45477650D01*
X135521151Y-45535755D01*
X135439024Y-45633630D01*
X135437869Y-45635731D01*
X135351513Y-45792813D01*
X135339776Y-45814162D01*
X135339052Y-45816443D01*
X135339052Y-45816444D01*
X135326616Y-45855649D01*
X135277484Y-46010532D01*
X135254520Y-46215262D01*
X134824138Y-46215262D01*
X134805480Y-46024970D01*
X134800433Y-46008251D01*
X134746626Y-45830039D01*
X134745935Y-45827749D01*
X134701668Y-45744494D01*
X134650342Y-45647962D01*
X134650339Y-45647958D01*
X134649218Y-45645849D01*
X134519011Y-45486200D01*
X134360275Y-45354882D01*
X134179055Y-45256897D01*
X133982254Y-45195977D01*
X133979879Y-45195727D01*
X133979877Y-45195727D01*
X133779752Y-45174693D01*
X133779747Y-45174693D01*
X133777369Y-45174443D01*
X133774984Y-45174660D01*
X133774979Y-45174660D01*
X133674786Y-45183779D01*
X133572203Y-45193114D01*
X133439495Y-45232172D01*
X133376875Y-45250602D01*
X133376873Y-45250603D01*
X133374572Y-45251280D01*
X133192002Y-45346726D01*
X133110206Y-45412491D01*
X133033312Y-45474315D01*
X133033309Y-45474318D01*
X133031447Y-45475815D01*
X133029908Y-45477649D01*
X133029907Y-45477650D01*
X132981151Y-45535755D01*
X132899024Y-45633630D01*
X132897869Y-45635731D01*
X132811513Y-45792813D01*
X132799776Y-45814162D01*
X132799052Y-45816443D01*
X132799052Y-45816444D01*
X132786616Y-45855649D01*
X132737484Y-46010532D01*
X132714520Y-46215262D01*
X129744138Y-46215262D01*
X129725480Y-46024970D01*
X129720433Y-46008251D01*
X129708521Y-45968798D01*
X129893109Y-45968798D01*
X129894482Y-45973466D01*
X129899128Y-45976000D01*
X130966253Y-45976000D01*
X130973145Y-45973145D01*
X130976000Y-45966253D01*
X131484000Y-45966253D01*
X131486855Y-45973145D01*
X131493747Y-45976000D01*
X132556712Y-45976000D01*
X132563604Y-45973145D01*
X132564935Y-45969932D01*
X132520445Y-45792813D01*
X132519153Y-45789019D01*
X132431714Y-45587922D01*
X132429818Y-45584386D01*
X132310709Y-45400270D01*
X132308266Y-45397098D01*
X132160679Y-45234903D01*
X132157751Y-45232172D01*
X131985660Y-45096264D01*
X131982322Y-45094046D01*
X131790343Y-44988067D01*
X131786685Y-44986424D01*
X131579978Y-44913225D01*
X131576109Y-44912202D01*
X131493596Y-44897504D01*
X131486310Y-44899106D01*
X131484000Y-44902719D01*
X131484000Y-45966253D01*
X130976000Y-45966253D01*
X130976000Y-44904734D01*
X130973145Y-44897842D01*
X130968882Y-44896076D01*
X130916202Y-44904138D01*
X130912290Y-44905070D01*
X130703857Y-44973196D01*
X130700175Y-44974743D01*
X130505657Y-45076003D01*
X130502267Y-45078138D01*
X130326903Y-45209805D01*
X130323907Y-45212465D01*
X130172407Y-45371001D01*
X130169889Y-45374110D01*
X130046311Y-45555268D01*
X130044332Y-45558752D01*
X129952007Y-45757650D01*
X129950621Y-45761418D01*
X129893109Y-45968798D01*
X129708521Y-45968798D01*
X129666626Y-45830039D01*
X129665935Y-45827749D01*
X129621668Y-45744494D01*
X129570342Y-45647962D01*
X129570339Y-45647958D01*
X129569218Y-45645849D01*
X129439011Y-45486200D01*
X129280275Y-45354882D01*
X129099055Y-45256897D01*
X128902254Y-45195977D01*
X128899879Y-45195727D01*
X128899877Y-45195727D01*
X128699752Y-45174693D01*
X128699747Y-45174693D01*
X128697369Y-45174443D01*
X128694984Y-45174660D01*
X128694979Y-45174660D01*
X128594786Y-45183779D01*
X128492203Y-45193114D01*
X128359495Y-45232172D01*
X128296875Y-45250602D01*
X128296873Y-45250603D01*
X128294572Y-45251280D01*
X128112002Y-45346726D01*
X128030206Y-45412491D01*
X127953312Y-45474315D01*
X127953309Y-45474318D01*
X127951447Y-45475815D01*
X127949908Y-45477649D01*
X127949907Y-45477650D01*
X127901151Y-45535755D01*
X127819024Y-45633630D01*
X127817869Y-45635731D01*
X127731513Y-45792813D01*
X127719776Y-45814162D01*
X127719052Y-45816443D01*
X127719052Y-45816444D01*
X127706616Y-45855649D01*
X127657484Y-46010532D01*
X127634520Y-46215262D01*
X127204138Y-46215262D01*
X127185480Y-46024970D01*
X127180433Y-46008251D01*
X127126626Y-45830039D01*
X127125935Y-45827749D01*
X127081668Y-45744494D01*
X127030342Y-45647962D01*
X127030339Y-45647958D01*
X127029218Y-45645849D01*
X126899011Y-45486200D01*
X126740275Y-45354882D01*
X126559055Y-45256897D01*
X126362254Y-45195977D01*
X126359879Y-45195727D01*
X126359877Y-45195727D01*
X126159752Y-45174693D01*
X126159747Y-45174693D01*
X126157369Y-45174443D01*
X126154984Y-45174660D01*
X126154979Y-45174660D01*
X126054786Y-45183779D01*
X125952203Y-45193114D01*
X125819495Y-45232172D01*
X125756875Y-45250602D01*
X125756873Y-45250603D01*
X125754572Y-45251280D01*
X125572002Y-45346726D01*
X125490206Y-45412491D01*
X125413312Y-45474315D01*
X125413309Y-45474318D01*
X125411447Y-45475815D01*
X125409908Y-45477649D01*
X125409907Y-45477650D01*
X125361151Y-45535755D01*
X125279024Y-45633630D01*
X125277869Y-45635731D01*
X125191513Y-45792813D01*
X125179776Y-45814162D01*
X125179052Y-45816443D01*
X125179052Y-45816444D01*
X125166616Y-45855649D01*
X125117484Y-46010532D01*
X125094520Y-46215262D01*
X122124138Y-46215262D01*
X122105480Y-46024970D01*
X122100433Y-46008251D01*
X122088521Y-45968798D01*
X122273109Y-45968798D01*
X122274482Y-45973466D01*
X122279128Y-45976000D01*
X123346253Y-45976000D01*
X123353145Y-45973145D01*
X123356000Y-45966253D01*
X123864000Y-45966253D01*
X123866855Y-45973145D01*
X123873747Y-45976000D01*
X124936712Y-45976000D01*
X124943604Y-45973145D01*
X124944935Y-45969932D01*
X124900445Y-45792813D01*
X124899153Y-45789019D01*
X124811714Y-45587922D01*
X124809818Y-45584386D01*
X124690709Y-45400270D01*
X124688266Y-45397098D01*
X124540679Y-45234903D01*
X124537751Y-45232172D01*
X124365660Y-45096264D01*
X124362322Y-45094046D01*
X124170343Y-44988067D01*
X124166685Y-44986424D01*
X123959978Y-44913225D01*
X123956109Y-44912202D01*
X123873596Y-44897504D01*
X123866310Y-44899106D01*
X123864000Y-44902719D01*
X123864000Y-45966253D01*
X123356000Y-45966253D01*
X123356000Y-44904734D01*
X123353145Y-44897842D01*
X123348882Y-44896076D01*
X123296202Y-44904138D01*
X123292290Y-44905070D01*
X123083857Y-44973196D01*
X123080175Y-44974743D01*
X122885657Y-45076003D01*
X122882267Y-45078138D01*
X122706903Y-45209805D01*
X122703907Y-45212465D01*
X122552407Y-45371001D01*
X122549889Y-45374110D01*
X122426311Y-45555268D01*
X122424332Y-45558752D01*
X122332007Y-45757650D01*
X122330621Y-45761418D01*
X122273109Y-45968798D01*
X122088521Y-45968798D01*
X122046626Y-45830039D01*
X122045935Y-45827749D01*
X122001668Y-45744494D01*
X121950342Y-45647962D01*
X121950339Y-45647958D01*
X121949218Y-45645849D01*
X121819011Y-45486200D01*
X121660275Y-45354882D01*
X121479055Y-45256897D01*
X121282254Y-45195977D01*
X121279879Y-45195727D01*
X121279877Y-45195727D01*
X121079752Y-45174693D01*
X121079747Y-45174693D01*
X121077369Y-45174443D01*
X121074984Y-45174660D01*
X121074979Y-45174660D01*
X120974786Y-45183779D01*
X120872203Y-45193114D01*
X120739495Y-45232172D01*
X120676875Y-45250602D01*
X120676873Y-45250603D01*
X120674572Y-45251280D01*
X120492002Y-45346726D01*
X120410206Y-45412491D01*
X120333312Y-45474315D01*
X120333309Y-45474318D01*
X120331447Y-45475815D01*
X120329908Y-45477649D01*
X120329907Y-45477650D01*
X120281151Y-45535755D01*
X120199024Y-45633630D01*
X120197869Y-45635731D01*
X120111513Y-45792813D01*
X120099776Y-45814162D01*
X120099052Y-45816443D01*
X120099052Y-45816444D01*
X120086616Y-45855649D01*
X120037484Y-46010532D01*
X120014520Y-46215262D01*
X119584138Y-46215262D01*
X119565480Y-46024970D01*
X119560433Y-46008251D01*
X119506626Y-45830039D01*
X119505935Y-45827749D01*
X119461668Y-45744494D01*
X119410342Y-45647962D01*
X119410339Y-45647958D01*
X119409218Y-45645849D01*
X119279011Y-45486200D01*
X119120275Y-45354882D01*
X118939055Y-45256897D01*
X118742254Y-45195977D01*
X118739879Y-45195727D01*
X118739877Y-45195727D01*
X118539752Y-45174693D01*
X118539747Y-45174693D01*
X118537369Y-45174443D01*
X118534984Y-45174660D01*
X118534979Y-45174660D01*
X118434786Y-45183779D01*
X118332203Y-45193114D01*
X118199495Y-45232172D01*
X118136875Y-45250602D01*
X118136873Y-45250603D01*
X118134572Y-45251280D01*
X117952002Y-45346726D01*
X117870206Y-45412491D01*
X117793312Y-45474315D01*
X117793309Y-45474318D01*
X117791447Y-45475815D01*
X117789908Y-45477649D01*
X117789907Y-45477650D01*
X117741151Y-45535755D01*
X117659024Y-45633630D01*
X117657869Y-45635731D01*
X117571513Y-45792813D01*
X117559776Y-45814162D01*
X117559052Y-45816443D01*
X117559052Y-45816444D01*
X117546616Y-45855649D01*
X117497484Y-46010532D01*
X117474520Y-46215262D01*
X117044138Y-46215262D01*
X117025480Y-46024970D01*
X117020433Y-46008251D01*
X116966626Y-45830039D01*
X116965935Y-45827749D01*
X116921668Y-45744494D01*
X116870342Y-45647962D01*
X116870339Y-45647958D01*
X116869218Y-45645849D01*
X116739011Y-45486200D01*
X116580275Y-45354882D01*
X116399055Y-45256897D01*
X116202254Y-45195977D01*
X116199879Y-45195727D01*
X116199877Y-45195727D01*
X115999752Y-45174693D01*
X115999747Y-45174693D01*
X115997369Y-45174443D01*
X115994984Y-45174660D01*
X115994979Y-45174660D01*
X115894786Y-45183779D01*
X115792203Y-45193114D01*
X115659495Y-45232172D01*
X115596875Y-45250602D01*
X115596873Y-45250603D01*
X115594572Y-45251280D01*
X115412002Y-45346726D01*
X115330206Y-45412491D01*
X115253312Y-45474315D01*
X115253309Y-45474318D01*
X115251447Y-45475815D01*
X115249908Y-45477649D01*
X115249907Y-45477650D01*
X115201151Y-45535755D01*
X115119024Y-45633630D01*
X115117869Y-45635731D01*
X115031513Y-45792813D01*
X115019776Y-45814162D01*
X115019052Y-45816443D01*
X115019052Y-45816444D01*
X115006616Y-45855649D01*
X114957484Y-46010532D01*
X114934520Y-46215262D01*
X111964138Y-46215262D01*
X111945480Y-46024970D01*
X111940433Y-46008251D01*
X111928521Y-45968798D01*
X112113109Y-45968798D01*
X112114482Y-45973466D01*
X112119128Y-45976000D01*
X113186253Y-45976000D01*
X113193145Y-45973145D01*
X113196000Y-45966253D01*
X113704000Y-45966253D01*
X113706855Y-45973145D01*
X113713747Y-45976000D01*
X114776712Y-45976000D01*
X114783604Y-45973145D01*
X114784935Y-45969932D01*
X114740445Y-45792813D01*
X114739153Y-45789019D01*
X114651714Y-45587922D01*
X114649818Y-45584386D01*
X114530709Y-45400270D01*
X114528266Y-45397098D01*
X114380679Y-45234903D01*
X114377751Y-45232172D01*
X114205660Y-45096264D01*
X114202322Y-45094046D01*
X114010343Y-44988067D01*
X114006685Y-44986424D01*
X113799978Y-44913225D01*
X113796109Y-44912202D01*
X113713596Y-44897504D01*
X113706310Y-44899106D01*
X113704000Y-44902719D01*
X113704000Y-45966253D01*
X113196000Y-45966253D01*
X113196000Y-44904734D01*
X113193145Y-44897842D01*
X113188882Y-44896076D01*
X113136202Y-44904138D01*
X113132290Y-44905070D01*
X112923857Y-44973196D01*
X112920175Y-44974743D01*
X112725657Y-45076003D01*
X112722267Y-45078138D01*
X112546903Y-45209805D01*
X112543907Y-45212465D01*
X112392407Y-45371001D01*
X112389889Y-45374110D01*
X112266311Y-45555268D01*
X112264332Y-45558752D01*
X112172007Y-45757650D01*
X112170621Y-45761418D01*
X112113109Y-45968798D01*
X111928521Y-45968798D01*
X111886626Y-45830039D01*
X111885935Y-45827749D01*
X111841668Y-45744494D01*
X111790342Y-45647962D01*
X111790339Y-45647958D01*
X111789218Y-45645849D01*
X111659011Y-45486200D01*
X111500275Y-45354882D01*
X111319055Y-45256897D01*
X111122254Y-45195977D01*
X111119879Y-45195727D01*
X111119877Y-45195727D01*
X110919752Y-45174693D01*
X110919747Y-45174693D01*
X110917369Y-45174443D01*
X110914984Y-45174660D01*
X110914979Y-45174660D01*
X110814786Y-45183779D01*
X110712203Y-45193114D01*
X110579495Y-45232172D01*
X110516875Y-45250602D01*
X110516873Y-45250603D01*
X110514572Y-45251280D01*
X110332002Y-45346726D01*
X110250206Y-45412491D01*
X110173312Y-45474315D01*
X110173309Y-45474318D01*
X110171447Y-45475815D01*
X110169908Y-45477649D01*
X110169907Y-45477650D01*
X110121151Y-45535755D01*
X110039024Y-45633630D01*
X110037869Y-45635731D01*
X109951513Y-45792813D01*
X109939776Y-45814162D01*
X109939052Y-45816443D01*
X109939052Y-45816444D01*
X109926616Y-45855649D01*
X109877484Y-46010532D01*
X109854520Y-46215262D01*
X109424138Y-46215262D01*
X109405480Y-46024970D01*
X109400433Y-46008251D01*
X109346626Y-45830039D01*
X109345935Y-45827749D01*
X109301668Y-45744494D01*
X109250342Y-45647962D01*
X109250339Y-45647958D01*
X109249218Y-45645849D01*
X109119011Y-45486200D01*
X108960275Y-45354882D01*
X108779055Y-45256897D01*
X108582254Y-45195977D01*
X108579879Y-45195727D01*
X108579877Y-45195727D01*
X108379752Y-45174693D01*
X108379747Y-45174693D01*
X108377369Y-45174443D01*
X108374984Y-45174660D01*
X108374979Y-45174660D01*
X108274786Y-45183779D01*
X108172203Y-45193114D01*
X108039495Y-45232172D01*
X107976875Y-45250602D01*
X107976873Y-45250603D01*
X107974572Y-45251280D01*
X107792002Y-45346726D01*
X107710206Y-45412491D01*
X107633312Y-45474315D01*
X107633309Y-45474318D01*
X107631447Y-45475815D01*
X107629908Y-45477649D01*
X107629907Y-45477650D01*
X107581151Y-45535755D01*
X107499024Y-45633630D01*
X107497869Y-45635731D01*
X107411513Y-45792813D01*
X107399776Y-45814162D01*
X107399052Y-45816443D01*
X107399052Y-45816444D01*
X107386616Y-45855649D01*
X107337484Y-46010532D01*
X107314520Y-46215262D01*
X104372472Y-46215262D01*
X104344221Y-46193662D01*
X104344218Y-46193660D01*
X104342651Y-46192462D01*
X104122761Y-46074557D01*
X103886848Y-45993326D01*
X103640983Y-45950858D01*
X103639454Y-45950789D01*
X103639449Y-45950788D01*
X103611636Y-45949525D01*
X103611621Y-45949525D01*
X103611078Y-45949500D01*
X103437309Y-45949500D01*
X103436342Y-45949578D01*
X103436337Y-45949578D01*
X103253257Y-45964308D01*
X103253252Y-45964309D01*
X103251298Y-45964466D01*
X103249394Y-45964934D01*
X103249392Y-45964934D01*
X103010903Y-46023513D01*
X103008994Y-46023982D01*
X103007187Y-46024749D01*
X103007184Y-46024750D01*
X102781131Y-46120703D01*
X102781125Y-46120706D01*
X102779323Y-46121471D01*
X102568192Y-46254427D01*
X102381035Y-46419428D01*
X102379786Y-46420949D01*
X102223909Y-46610716D01*
X102223906Y-46610721D01*
X102222666Y-46612230D01*
X102097160Y-46827872D01*
X102007745Y-47060805D01*
X101956722Y-47305039D01*
X101945404Y-47554288D01*
X100100500Y-47554288D01*
X100100500Y-47023680D01*
X100102898Y-47008537D01*
X100103274Y-47007380D01*
X100105672Y-47000000D01*
X100103274Y-46992620D01*
X100103274Y-46988803D01*
X100101777Y-46977266D01*
X100118577Y-46678110D01*
X100119192Y-46672649D01*
X100154666Y-46463863D01*
X100172738Y-46357502D01*
X100173957Y-46352164D01*
X100262448Y-46045001D01*
X100264263Y-46039814D01*
X100386589Y-45744494D01*
X100388973Y-45739544D01*
X100543593Y-45459780D01*
X100546517Y-45455127D01*
X100731488Y-45194435D01*
X100734914Y-45190139D01*
X100947911Y-44951796D01*
X100951796Y-44947911D01*
X101190139Y-44734914D01*
X101194435Y-44731488D01*
X101455127Y-44546517D01*
X101459780Y-44543593D01*
X101739544Y-44388973D01*
X101744494Y-44386589D01*
X102039814Y-44264263D01*
X102045001Y-44262448D01*
X102047179Y-44261820D01*
X102352164Y-44173957D01*
X102357502Y-44172738D01*
X102515080Y-44145964D01*
X102672649Y-44119192D01*
X102678110Y-44118577D01*
X102977266Y-44101777D01*
X102988803Y-44103274D01*
X102992620Y-44103274D01*
X103000000Y-44105672D01*
X103008537Y-44102898D01*
X103023680Y-44100500D01*
X161976320Y-44100500D01*
X161991463Y-44102898D01*
G37*
G04 #@! TD.AperFunction*
M02*
