G04 #@! TF.GenerationSoftware,KiCad,Pcbnew,6.0.11+dfsg-1*
G04 #@! TF.CreationDate,2025-03-22T20:51:54+01:00*
G04 #@! TF.ProjectId,shootingrangepcb,73686f6f-7469-46e6-9772-616e67657063,rev?*
G04 #@! TF.SameCoordinates,Original*
G04 #@! TF.FileFunction,Legend,Bot*
G04 #@! TF.FilePolarity,Positive*
%FSLAX46Y46*%
G04 Gerber Fmt 4.6, Leading zero omitted, Abs format (unit mm)*
G04 Created by KiCad (PCBNEW 6.0.11+dfsg-1) date 2025-03-22 20:51:54*
%MOMM*%
%LPD*%
G01*
G04 APERTURE LIST*
G04 Aperture macros list*
%AMRoundRect*
0 Rectangle with rounded corners*
0 $1 Rounding radius*
0 $2 $3 $4 $5 $6 $7 $8 $9 X,Y pos of 4 corners*
0 Add a 4 corners polygon primitive as box body*
4,1,4,$2,$3,$4,$5,$6,$7,$8,$9,$2,$3,0*
0 Add four circle primitives for the rounded corners*
1,1,$1+$1,$2,$3*
1,1,$1+$1,$4,$5*
1,1,$1+$1,$6,$7*
1,1,$1+$1,$8,$9*
0 Add four rect primitives between the rounded corners*
20,1,$1+$1,$2,$3,$4,$5,0*
20,1,$1+$1,$4,$5,$6,$7,0*
20,1,$1+$1,$6,$7,$8,$9,0*
20,1,$1+$1,$8,$9,$2,$3,0*%
G04 Aperture macros list end*
%ADD10C,0.150000*%
%ADD11C,0.120000*%
%ADD12C,1.612000*%
%ADD13C,3.250000*%
%ADD14RoundRect,0.102000X-0.704000X0.704000X-0.704000X-0.704000X0.704000X-0.704000X0.704000X0.704000X0*%
%ADD15R,1.700000X1.700000*%
%ADD16O,1.700000X1.700000*%
%ADD17C,2.700000*%
G04 APERTURE END LIST*
D10*
X108703333Y-50722380D02*
X108703333Y-51436666D01*
X108750952Y-51579523D01*
X108846190Y-51674761D01*
X108989047Y-51722380D01*
X109084285Y-51722380D01*
X107703333Y-51722380D02*
X108274761Y-51722380D01*
X107989047Y-51722380D02*
X107989047Y-50722380D01*
X108084285Y-50865238D01*
X108179523Y-50960476D01*
X108274761Y-51008095D01*
D11*
X109640000Y-50100000D02*
X157960000Y-50100000D01*
X109640000Y-47500000D02*
X109640000Y-50100000D01*
X107040000Y-44900000D02*
X157960000Y-44900000D01*
X157960000Y-44900000D02*
X157960000Y-50100000D01*
X107040000Y-48770000D02*
X107040000Y-50100000D01*
X107040000Y-44900000D02*
X107040000Y-47500000D01*
X107040000Y-50100000D02*
X108370000Y-50100000D01*
X107040000Y-47500000D02*
X109640000Y-47500000D01*
%LPC*%
D12*
X149375000Y-85460000D03*
D13*
X140485000Y-91820000D03*
X151915000Y-91820000D03*
D12*
X150645000Y-82920000D03*
X146835000Y-85460000D03*
X148105000Y-82920000D03*
X144295000Y-85460000D03*
X145565000Y-82920000D03*
D14*
X141755000Y-85460000D03*
D12*
X143025000Y-82920000D03*
D15*
X108370000Y-48770000D03*
D16*
X108370000Y-46230000D03*
X110910000Y-48770000D03*
X110910000Y-46230000D03*
X113450000Y-48770000D03*
X113450000Y-46230000D03*
X115990000Y-48770000D03*
X115990000Y-46230000D03*
X118530000Y-48770000D03*
X118530000Y-46230000D03*
X121070000Y-48770000D03*
X121070000Y-46230000D03*
X123610000Y-48770000D03*
X123610000Y-46230000D03*
X126150000Y-48770000D03*
X126150000Y-46230000D03*
X128690000Y-48770000D03*
X128690000Y-46230000D03*
X131230000Y-48770000D03*
X131230000Y-46230000D03*
X133770000Y-48770000D03*
X133770000Y-46230000D03*
X136310000Y-48770000D03*
X136310000Y-46230000D03*
X138850000Y-48770000D03*
X138850000Y-46230000D03*
X141390000Y-48770000D03*
X141390000Y-46230000D03*
X143930000Y-48770000D03*
X143930000Y-46230000D03*
X146470000Y-48770000D03*
X146470000Y-46230000D03*
X149010000Y-48770000D03*
X149010000Y-46230000D03*
X151550000Y-48770000D03*
X151550000Y-46230000D03*
X154090000Y-48770000D03*
X154090000Y-46230000D03*
X156630000Y-48770000D03*
X156630000Y-46230000D03*
D12*
X120975000Y-85460000D03*
D13*
X112085000Y-91820000D03*
X123515000Y-91820000D03*
D12*
X122245000Y-82920000D03*
X118435000Y-85460000D03*
X119705000Y-82920000D03*
X115895000Y-85460000D03*
X117165000Y-82920000D03*
D14*
X113355000Y-85460000D03*
D12*
X114625000Y-82920000D03*
D17*
X161500000Y-47500000D03*
X103500000Y-96500000D03*
X103500000Y-47500000D03*
X161500000Y-96500000D03*
M02*
